<svg version="1.1" id="Layer_1" xmlns="http://www.w3.org/2000/svg" xmlns:xlink="http://www.w3.org/1999/xlink" x="0px" y="0px"
	 width="100%" viewBox="0 0 934 299" enable-background="new 0 0 934 299" xml:space="preserve">
<path fill="#FEFEFE" opacity="1.000000" stroke="none" 
	d="
M921.000000,300.000000 
	C617.637329,300.000000 314.274597,300.000000 10.453555,299.531342 
	C9.994671,260.902802 9.976142,222.742920 10.038634,184.583160 
	C10.042354,182.312027 10.695709,180.041962 11.505062,177.688812 
	C16.906307,177.606247 21.849258,177.606247 27.190437,177.606247 
	C27.190437,163.048065 27.329432,149.234009 27.108290,135.425735 
	C27.039244,131.114380 28.723745,128.112213 31.830370,125.532204 
	C40.395443,118.419044 50.522751,121.774170 52.672287,132.583008 
	C53.217865,135.326431 53.105827,138.221130 53.116001,141.046967 
	C53.159054,153.005386 53.134251,164.964050 53.134251,177.129150 
	C59.160934,177.129150 64.679665,177.129150 70.562447,177.129150 
	C70.562447,162.875031 70.509361,149.060165 70.619598,135.246613 
	C70.636154,133.171463 70.923996,130.813461 71.937576,129.085678 
	C74.775536,124.247871 83.546089,120.950226 88.643631,122.382866 
	C93.177635,123.657120 95.959961,128.219177 96.414062,135.181747 
	C96.489845,136.343613 96.460312,137.513062 96.460243,138.679016 
	C96.459595,149.678360 96.454689,160.677689 96.451233,171.677032 
	C96.450676,173.454468 96.451157,175.231903 96.451157,177.166229 
	C102.666130,177.166229 108.198799,177.166229 114.101151,177.166229 
	C114.101151,169.450348 114.245331,162.130768 114.065224,154.819168 
	C113.831741,145.341125 114.216385,135.733643 112.773537,126.423851 
	C109.928017,108.063591 95.235825,101.408272 79.066521,110.533722 
	C75.097015,112.774002 71.422737,115.537376 67.434387,118.178360 
	C63.303974,109.887985 56.570320,106.661369 47.725460,107.005882 
	C39.411419,107.329735 32.529140,111.061836 25.746956,116.469269 
	C22.490355,109.271225 18.079638,104.849854 10.068927,106.758224 
	C10.033306,72.196342 10.010242,38.118198 10.450337,4.125863 
	C134.143936,4.222292 257.374390,4.233497 380.604828,4.234797 
	C381.765869,4.234809 382.926941,4.102884 384.539368,4.130735 
	C393.630280,4.298468 402.269806,4.368021 410.938721,4.767989 
	C411.035431,5.536188 411.102722,5.973973 410.894958,6.622231 
	C408.932220,7.511636 407.239166,8.177408 405.557831,8.871616 
	C393.313599,13.927001 383.188049,21.522915 376.162964,33.384666 
	C373.563934,39.015316 371.250061,44.434258 368.759216,49.971188 
	C368.381287,50.339508 368.353912,50.607567 368.294861,51.261665 
	C367.618317,54.377712 367.147095,57.125446 366.427368,60.037697 
	C366.174530,60.782780 366.170197,61.363350 366.120972,62.237907 
	C366.170471,62.706245 366.264893,62.880592 366.276825,63.513550 
	C366.240997,82.312691 366.287628,100.653221 366.188110,119.439011 
	C366.149567,125.555595 366.257111,131.226929 366.231079,137.349869 
	C366.175812,148.534393 366.254089,159.267288 366.184937,170.446411 
	C366.134033,175.931213 366.230530,180.969833 366.179443,186.455475 
	C366.128296,197.599396 366.224762,208.296295 366.209229,219.406006 
	C366.256409,221.217636 366.415558,222.616425 366.471375,224.343033 
	C366.629364,225.779739 366.890625,226.888657 367.075439,228.393768 
	C369.008545,234.490341 371.018127,240.190704 373.010376,245.930878 
	C372.993011,245.970673 373.073181,246.004074 373.062012,246.286560 
	C373.378326,247.004486 373.705841,247.439926 374.017334,247.921661 
	C374.001282,247.967957 374.095428,247.995331 374.109406,248.283813 
	C374.376068,248.851181 374.628784,249.130096 374.872559,249.752762 
	C377.036560,253.074036 379.209473,256.051544 381.414368,259.201111 
	C381.584229,259.604828 381.785065,259.692627 382.051086,259.770508 
	C382.053314,259.904449 382.316895,259.952606 382.331146,260.156799 
	C382.493134,260.640198 382.722961,260.754395 383.164551,261.015015 
	C385.082642,262.934174 386.871063,264.541870 388.801453,266.460114 
	C392.633087,269.099182 396.322754,271.427704 400.149231,273.932007 
	C400.286072,274.107727 400.731140,274.127045 400.932434,274.419312 
	C406.096069,276.332611 411.058441,277.953583 416.333801,279.741333 
	C417.112305,279.897003 417.577789,279.885956 418.372192,280.103455 
	C421.805573,280.469696 424.910004,280.607422 428.415283,280.874115 
	C430.206207,280.927155 431.596313,280.851227 433.350098,280.925232 
	C434.480438,280.977753 435.247040,280.880371 436.453857,280.911194 
	C439.950958,280.958954 443.007843,280.878479 446.421997,280.974365 
	C492.383026,281.127167 537.990601,281.395081 583.586914,280.799835 
	C591.396790,280.697906 599.158508,276.912903 607.240295,274.838257 
	C608.009460,274.509216 608.480835,274.171295 609.278687,273.827637 
	C610.268982,273.290649 610.932739,272.759460 611.736694,272.229736 
	C611.876831,272.231171 611.998840,271.978760 612.313354,271.967407 
	C613.410706,271.302643 614.193542,270.649231 615.294739,269.928040 
	C616.728088,268.870361 617.843140,267.880432 619.287842,266.820435 
	C621.430847,264.978699 623.244141,263.207031 625.190308,261.475525 
	C625.323303,261.515717 625.520508,261.320496 625.520508,261.320496 
	C625.520508,261.320496 625.449524,261.052094 625.764038,260.864319 
	C628.388916,257.124237 630.699280,253.571976 633.229614,249.756714 
	C635.901978,243.644516 638.354309,237.795288 640.974182,231.733368 
	C641.136536,230.996613 641.131348,230.472580 641.315674,229.602692 
	C641.736633,228.505203 641.968140,227.753555 642.541870,226.956482 
	C647.303589,224.735092 647.998596,220.741669 647.999084,216.414688 
	C648.001099,199.594391 648.096924,182.773285 647.955627,165.954163 
	C647.892944,158.500473 647.214783,151.053192 647.082214,143.598267 
	C647.021118,140.160904 646.464722,135.972015 648.126709,133.424622 
	C651.459045,128.316666 651.043823,123.623009 649.728760,118.259827 
	C648.915100,114.941002 649.363708,111.332626 648.954041,107.888931 
	C648.568909,104.651245 647.780823,101.462662 647.207764,98.245750 
	C646.774414,95.812981 646.089233,93.374008 646.054932,90.930229 
	C645.920471,81.359619 645.911987,71.784714 646.052246,62.214275 
	C646.095520,59.259720 645.341003,57.352234 642.020508,56.630066 
	C639.415344,49.795086 636.970947,43.321140 634.416748,36.503014 
	C627.627441,25.142811 619.659241,15.518567 606.826172,10.639010 
	C603.711548,9.263923 600.812744,8.165653 597.819397,6.850836 
	C597.472046,6.442224 597.215149,6.255658 596.972839,5.775436 
	C597.019470,5.078610 597.047546,4.680940 597.530090,4.193275 
	C603.289673,4.059689 608.594849,4.016097 614.368225,4.060169 
	C641.221436,4.117069 667.606445,4.086305 694.454590,4.138895 
	C769.290100,4.231735 843.662415,4.242043 918.034668,4.241931 
	C919.027466,4.241930 920.020264,4.109910 920.998779,4.505511 
	C920.989624,103.314339 920.994812,201.657166 921.000000,300.000000 
M221.161301,138.131638 
	C221.073441,119.421440 220.985580,100.711243 220.845001,81.222610 
	C216.513138,80.976562 212.182602,80.612427 207.848495,80.563324 
	C206.692245,80.550224 205.525040,81.501282 204.109177,82.913994 
	C204.090744,110.302391 204.058960,137.690781 204.069824,165.079178 
	C204.071259,168.715439 204.289368,172.351608 204.499695,176.714447 
	C209.950653,176.475632 215.401627,176.236816 221.139328,175.099197 
	C221.104355,164.404587 221.069397,153.709991 221.732315,142.954666 
	C223.325012,144.608032 225.027939,146.169739 226.491837,147.930222 
	C233.837143,156.763626 241.098434,165.666916 248.451981,174.493423 
	C249.366379,175.590988 250.622543,177.135971 251.773178,177.183075 
	C258.174347,177.445099 264.591858,177.308853 272.386017,177.308853 
	C261.214905,164.537735 250.982651,152.839966 240.638351,141.014084 
	C249.842926,129.369659 258.736023,118.119255 268.507812,105.757248 
	C261.991241,105.757248 257.048065,105.942711 252.127045,105.692581 
	C248.801956,105.523575 246.668488,106.546509 244.694763,109.355759 
	C238.283859,118.480545 231.596756,127.413742 224.881638,136.319397 
	C223.969818,137.528671 222.292419,138.160675 221.161301,138.131638 
M669.872009,124.928101 
	C669.893982,135.425262 669.692505,145.929153 670.009399,156.417404 
	C670.258301,164.657211 672.811279,171.922714 681.339539,175.317902 
	C688.780273,178.280136 696.388306,177.889725 703.881409,175.645859 
	C705.177124,175.257858 706.739014,173.298172 706.869263,171.939102 
	C707.262451,167.835129 707.011169,163.669403 707.011169,159.360092 
	C703.638306,160.052597 700.740540,160.861359 697.788574,161.207489 
	C692.263428,161.855377 688.034241,159.227646 687.786743,153.939346 
	C687.299561,143.531021 687.643250,133.083817 687.643250,122.009300 
	C694.068298,122.009300 700.301636,122.009300 706.765564,122.009300 
	C706.765564,116.491554 706.765564,111.623703 706.765564,106.143242 
	C700.182434,106.143242 693.947754,106.143242 687.341431,106.143242 
	C687.341431,100.237076 687.341431,94.941414 687.341431,87.979485 
	C684.272095,89.465248 681.593689,89.975876 680.161987,91.591354 
	C674.088867,98.443802 668.546997,105.767273 662.470154,112.616165 
	C659.953003,115.453156 658.609375,118.313370 658.479980,122.514694 
	C659.273010,123.009941 660.042908,123.882355 660.863159,123.932503 
	C663.785950,124.111191 666.725830,124.010284 669.872009,124.928101 
M809.735657,167.499924 
	C809.735657,180.090240 809.735657,192.680557 809.735657,205.439575 
	C815.755493,205.439575 821.153564,205.439575 827.244019,205.439575 
	C827.244019,193.531937 827.244019,181.916443 827.244019,169.752365 
	C843.497742,183.408249 868.003540,178.593491 875.109070,158.188507 
	C878.721680,147.814377 878.697327,137.243851 875.241577,126.811356 
	C868.768982,107.271591 846.371155,100.363968 829.785461,112.679573 
	C828.774414,113.430298 827.637146,114.011017 826.203552,114.888016 
	C822.519409,108.626259 817.932739,104.580948 809.735779,107.556969 
	C809.735779,126.998138 809.735779,146.749023 809.735657,167.499924 
M333.777893,156.864548 
	C332.829376,156.837189 331.822784,156.587433 330.941498,156.817520 
	C323.754059,158.694000 316.693420,161.471313 309.393707,162.401733 
	C299.380188,163.678070 290.849243,156.115234 290.982544,146.939362 
	C292.780426,146.939362 294.586884,146.939240 296.393311,146.939377 
	C309.053284,146.940430 321.714050,146.866196 334.372620,146.999237 
	C337.284363,147.029831 338.695251,146.161545 338.817505,143.160294 
	C339.343842,130.241806 336.384430,118.445320 324.538788,111.693748 
	C312.989349,105.110985 300.212097,105.014328 288.661316,111.673706 
	C275.849518,119.060112 271.129791,131.429001 272.675598,145.789536 
	C274.298157,160.862595 282.162933,171.587936 297.117523,176.015030 
	C306.102936,178.675003 315.330963,178.293884 324.283905,175.807709 
	C337.007202,172.274536 336.957306,172.057983 334.222900,159.129150 
	C334.119568,158.640472 334.041931,158.146378 333.777893,156.864548 
M131.780457,169.653030 
	C140.730637,180.230362 155.363373,180.495316 171.005966,170.034592 
	C173.033951,179.360367 179.826233,178.130936 186.649857,177.164307 
	C186.649857,160.630096 187.317734,144.157440 186.393219,127.774635 
	C185.859619,118.319023 179.583878,111.667358 170.260727,108.706253 
	C157.921310,104.787163 145.881638,107.159561 134.008270,110.944267 
	C133.025833,111.257431 131.856689,113.096779 131.909729,114.170952 
	C132.110214,118.231422 132.779221,122.268753 133.324951,126.741554 
	C135.230560,126.013695 136.431015,125.477455 137.677963,125.091385 
	C146.368210,122.400833 155.196182,120.816742 164.224823,122.997452 
	C169.869598,124.360847 171.471893,127.351517 170.255219,134.172256 
	C162.950882,134.172256 155.395935,133.424118 148.040604,134.318176 
	C129.036530,136.628143 121.579865,152.602280 131.780457,169.653030 
M720.270569,166.454468 
	C720.270569,170.034134 720.270569,173.613785 720.270569,177.185410 
	C726.555481,177.185410 731.955017,177.185410 737.843140,177.185410 
	C737.843140,166.648788 737.727478,156.507095 737.873108,146.369141 
	C738.046326,134.310608 743.301025,122.914749 759.303406,123.001778 
	C760.448669,123.008011 762.402954,121.997421 762.614563,121.127327 
	C763.701294,116.658058 764.340820,112.080032 765.193054,107.218063 
	C752.169250,104.688896 743.733887,110.867104 736.634521,120.951042 
	C734.819397,116.202866 733.964111,111.944420 731.725037,108.617043 
	C728.895874,104.412697 724.371338,107.409889 720.270630,106.721710 
	C720.270630,126.831238 720.270630,146.148834 720.270569,166.454468 
M791.437317,110.569031 
	C790.581665,109.308876 789.805969,107.034630 788.856812,106.959717 
	C784.115723,106.585548 779.328979,106.788567 774.362732,106.788567 
	C774.362732,130.561371 774.362732,153.760223 774.362732,177.108582 
	C780.059143,177.108582 785.450806,177.108582 791.440857,177.108582 
	C791.440857,155.047791 791.440857,133.302002 791.437317,110.569031 
M784.973755,95.755814 
	C790.244080,93.312759 792.722656,89.386093 791.786987,84.962013 
	C790.929260,80.906677 787.229126,77.839043 783.231689,77.869225 
	C778.304382,77.906425 774.199402,81.825989 774.090515,86.597466 
	C773.970581,91.852226 777.981873,95.540092 784.973755,95.755814 
z"/>
<path fill="#E7E9ED" opacity="1.000000" stroke="none" 
	d="
M921.474121,300.000000 
	C920.994812,201.657166 920.989624,103.314339 920.784302,4.127867 
	C918.598083,3.192905 916.612000,3.022219 914.625854,3.021782 
	C851.069580,3.007792 787.513245,3.003259 723.956970,3.017538 
	C713.976929,3.019780 703.996826,3.118603 693.551636,3.102105 
	C666.700867,3.099090 640.315247,3.166738 613.474548,3.162234 
	C597.342102,3.089897 581.664734,3.089712 565.521729,3.040686 
	C518.841858,2.978555 472.627655,2.945874 426.413452,2.963622 
	C412.290924,2.969046 398.168457,3.113023 383.577545,3.137368 
	C260.076355,3.057564 137.043579,3.030667 14.010821,3.053009 
	C12.669547,3.053252 11.328389,3.696811 9.987177,4.040058 
	C10.010242,38.118198 10.033306,72.196342 10.084299,107.209770 
	C10.097123,129.773499 10.061495,151.401978 10.109281,173.030289 
	C10.112774,174.611343 10.720148,176.191055 11.046766,177.771393 
	C10.695709,180.041962 10.042354,182.312027 10.038634,184.583160 
	C9.976142,222.742920 9.994671,260.902802 9.997604,299.531342 
	C7.000865,300.000000 4.001729,300.000000 1.001945,300.000000 
	C1.001297,200.362915 1.001297,100.725838 1.001297,1.044381 
	C312.214020,1.044381 623.428040,1.044381 934.821045,1.044381 
	C934.821045,100.666405 934.821045,200.333176 934.821045,300.000000 
	C930.612244,300.000000 926.280212,300.000000 921.474121,300.000000 
z"/>
<path fill="#01D107" opacity="1.000000" stroke="none" 
	d="
M376.448151,33.172958 
	C383.188049,21.522915 393.313599,13.927001 405.557831,8.871616 
	C407.239166,8.177408 408.932220,7.511636 411.281067,6.653666 
	C412.703827,6.299688 413.465454,6.124749 414.575562,6.029001 
	C416.291687,5.784652 417.659302,5.461112 419.068451,5.491925 
	C419.615387,6.467253 420.044220,7.541903 420.637451,7.641923 
	C431.522583,9.477299 442.376038,11.882451 453.345734,12.704368 
	C460.996124,13.277582 468.802338,11.260915 476.555176,11.074102 
	C498.990631,10.533498 521.435303,10.389071 543.874207,9.972180 
	C553.326904,9.796558 562.808594,9.696716 572.207764,8.819600 
	C576.258423,8.441605 580.133057,6.178133 584.497253,4.767899 
	C587.873779,5.153991 590.840698,5.543403 594.152039,6.027780 
	C594.948059,6.266573 595.399597,6.410402 595.920288,6.773368 
	C596.630859,7.017467 597.272400,7.042428 597.913879,7.067386 
	C600.812744,8.165653 603.711548,9.263923 606.678467,10.940421 
	C605.597778,12.142275 604.448914,12.765899 602.295105,13.935086 
	C608.174194,19.002823 612.760132,22.657270 616.987671,26.687668 
	C620.878235,30.396837 624.594788,33.993568 623.378052,40.661293 
	C622.844360,43.586094 625.065796,49.224388 627.299866,50.002563 
	C632.640381,51.862759 633.242676,56.637875 636.008301,60.336369 
	C636.008057,61.111698 636.008667,61.554741 635.731812,62.198967 
	C632.767334,65.613564 630.282471,69.038803 627.270508,71.911446 
	C626.365417,72.774734 623.946716,72.356049 622.304443,72.061516 
	C620.402466,71.720390 618.636047,70.608994 616.733704,70.287132 
	C610.975220,69.312836 605.033569,69.100449 599.432434,67.591850 
	C591.004395,65.321861 583.158020,62.227768 574.066345,66.238014 
	C564.013184,70.672356 552.937439,70.993080 541.993347,71.031494 
	C537.247864,71.048141 532.173401,70.391914 527.820984,71.805000 
	C515.086060,75.939667 502.516388,72.856941 489.888519,72.112206 
	C484.959229,71.821503 479.956329,70.115425 475.165771,70.651627 
	C462.364075,72.084465 450.206757,69.096161 437.823975,66.959045 
	C429.137909,65.459946 420.243713,63.151176 411.412384,66.945213 
	C410.039032,67.535225 408.198456,67.574081 406.709259,67.248589 
	C403.406738,66.526764 400.190155,65.411736 396.360809,64.287415 
	C397.009644,63.142120 397.914398,61.105373 399.203430,59.350967 
	C403.286621,53.793629 408.064301,48.755356 408.857819,41.305027 
	C409.430298,35.930492 407.563660,33.481964 402.394684,34.779415 
	C394.882599,36.665024 387.460480,38.909096 379.959137,40.626781 
	C378.761566,37.893158 377.604858,35.533058 376.448151,33.172958 
z"/>
<path fill="#03D307" opacity="1.000000" stroke="none" 
	d="
M380.000000,41.000305 
	C387.460480,38.909096 394.882599,36.665024 402.394684,34.779415 
	C407.563660,33.481964 409.430298,35.930492 408.857819,41.305027 
	C408.064301,48.755356 403.286621,53.793629 399.203430,59.350967 
	C397.914398,61.105373 397.009644,63.142120 396.360809,64.287415 
	C400.190155,65.411736 403.406738,66.526764 406.709259,67.248589 
	C408.198456,67.574081 410.039032,67.535225 411.412384,66.945213 
	C420.243713,63.151176 429.137909,65.459946 437.823975,66.959045 
	C450.206757,69.096161 462.364075,72.084465 475.165771,70.651627 
	C479.956329,70.115425 484.959229,71.821503 489.888519,72.112206 
	C502.516388,72.856941 515.086060,75.939667 527.820984,71.805000 
	C532.173401,70.391914 537.247864,71.048141 541.993347,71.031494 
	C552.937439,70.993080 564.013184,70.672356 574.066345,66.238014 
	C583.158020,62.227768 591.004395,65.321861 599.432434,67.591850 
	C605.033569,69.100449 610.975220,69.312836 616.733704,70.287132 
	C618.636047,70.608994 620.402466,71.720390 622.304443,72.061516 
	C623.946716,72.356049 626.365417,72.774734 627.270508,71.911446 
	C630.282471,69.038803 632.767334,65.613564 636.025513,62.491974 
	C636.700256,66.224960 636.880432,69.865883 636.892517,73.507347 
	C636.924438,83.087685 636.861877,92.668297 636.879639,102.248726 
	C636.889343,107.490616 636.997681,112.732254 637.038574,117.974190 
	C637.062988,121.107727 637.043030,124.241608 637.043030,127.375343 
	C637.528320,127.379707 638.013611,127.384071 638.498962,127.388435 
	C638.852112,124.767319 639.205261,122.146202 639.558411,119.525078 
	C640.203796,119.641449 640.849182,119.757820 641.494507,119.874191 
	C640.857178,123.233803 640.382996,126.635887 639.523193,129.937576 
	C638.982849,132.012665 637.150024,133.923920 637.112854,135.931168 
	C636.617249,162.707336 636.586670,189.494156 635.870422,216.263107 
	C635.610718,225.966629 633.806458,235.626236 632.793274,245.314896 
	C632.631775,246.858734 632.926025,248.450226 633.009644,250.019684 
	C630.699280,253.571976 628.388916,257.124237 625.670532,260.893738 
	C625.262512,261.110992 625.057373,261.435364 625.057373,261.435364 
	C623.244141,263.207031 621.430847,264.978699 619.157471,266.519775 
	C619.283997,264.541046 619.467285,262.486023 620.524780,261.096222 
	C626.059387,253.822296 630.021851,246.026978 626.750183,236.807800 
	C625.735474,233.948364 622.667786,231.325317 619.880005,229.801651 
	C618.551453,229.075500 615.484192,230.870392 613.555420,232.081970 
	C611.480835,233.385132 609.947083,235.519394 607.951904,236.983826 
	C600.300781,242.599747 600.073425,242.496078 594.689819,234.509445 
	C593.863098,233.282913 592.459839,232.422028 591.729675,231.157364 
	C588.870544,226.205109 585.887390,221.585114 588.254944,215.071045 
	C591.507996,206.120255 593.889465,196.824966 596.136536,187.554199 
	C596.762756,184.970367 595.596924,181.952148 595.148987,178.278671 
	C587.933105,183.177734 585.797180,189.239731 584.060242,195.529984 
	C581.562866,204.574219 579.347839,213.707169 576.502686,222.639954 
	C575.115356,226.995590 572.574768,230.983917 570.294861,235.676315 
	C568.356018,232.737976 567.124390,230.871490 565.759949,228.642456 
	C565.537476,227.521835 565.447815,226.763733 565.529480,225.681030 
	C565.672424,224.873856 565.644043,224.391281 565.762573,223.542740 
	C565.977112,222.131683 566.044739,221.086578 566.067383,220.038513 
	C566.022339,220.035522 566.085327,220.100128 566.292358,219.904572 
	C566.577209,219.159317 566.655029,218.609619 566.895630,217.789795 
	C567.106323,216.908051 567.154236,216.296402 567.461670,215.425751 
	C567.788757,214.450714 567.856262,213.734695 568.105469,212.677994 
	C568.976929,209.155228 569.666687,205.973145 570.616089,202.564545 
	C570.930664,201.889084 570.985657,201.440140 571.143677,200.898621 
	C571.246643,200.806061 571.142700,200.549347 571.367554,200.360474 
	C571.652161,199.795929 571.711853,199.420273 571.964661,198.715897 
	C573.107788,195.255905 574.057861,192.124634 575.201111,188.800842 
	C575.512695,188.090927 575.631104,187.573517 575.962524,186.752075 
	C578.378052,181.065536 580.240662,175.512344 582.842346,170.330200 
	C593.804077,148.496323 604.986328,126.773148 616.328613,104.885345 
	C616.749817,104.270378 616.930237,103.779549 617.209961,102.946419 
	C618.511353,99.783417 619.713623,96.962715 620.986938,93.838516 
	C621.022461,93.330299 620.986938,93.125565 620.841187,92.632614 
	C620.511963,91.558098 620.292969,90.771790 620.460938,89.989944 
	C622.517944,88.936104 624.497314,88.126396 625.669250,86.667900 
	C626.020569,86.230705 624.213501,83.912010 623.217041,82.589630 
	C622.527649,81.674858 621.567566,80.947678 620.667969,80.210457 
	C615.971436,76.361542 607.608948,76.347771 603.166382,80.409477 
	C599.513367,83.749329 596.205811,87.466103 592.569031,90.825089 
	C591.219116,92.071899 589.367981,92.775993 587.745422,93.727570 
	C587.153076,92.132439 586.691711,90.472733 585.943359,88.954475 
	C583.862915,84.733551 582.695984,78.720001 579.273621,76.810852 
	C573.855957,73.788620 566.917725,72.493652 560.584045,72.363869 
	C552.600464,72.200302 544.147583,73.136604 538.188721,79.566261 
	C535.709351,82.241508 534.092896,84.289017 530.557434,81.482376 
	C530.047424,81.077530 528.298889,81.303452 527.905945,81.825905 
	C524.410828,86.473305 520.957336,86.580055 517.124084,82.238266 
	C516.553589,81.592117 515.303284,81.383835 514.334167,81.277916 
	C507.183502,80.496376 500.026123,79.773430 492.863922,79.107147 
	C492.398926,79.063911 491.876038,79.643661 490.553101,80.417084 
	C493.895386,81.513771 496.381409,82.329491 499.244171,83.268837 
	C497.275421,86.771378 495.701996,89.635742 494.065552,92.463631 
	C492.441650,95.269783 490.639587,97.978798 489.131073,100.843834 
	C487.920990,103.142120 487.033234,105.610130 485.976013,108.323868 
	C485.300110,109.431374 484.650665,110.217827 483.732910,110.777405 
	C484.258240,107.813820 485.206482,105.109467 485.788513,102.328476 
	C486.147583,100.612755 485.948486,98.780212 485.993896,96.613937 
	C485.632538,91.598442 482.829498,90.432205 478.519043,90.987442 
	C478.090149,90.609177 478.017365,90.307297 478.425568,89.818787 
	C481.161133,89.060707 483.572449,88.500381 485.955078,87.837067 
	C489.125458,86.954453 490.453705,83.765694 488.007568,81.816513 
	C484.581421,79.086395 480.698364,76.405441 476.572784,75.189552 
	C468.685974,72.865150 460.920837,73.020088 454.351166,79.547989 
	C453.255981,80.636200 448.836212,80.512497 448.044952,79.425629 
	C442.989471,72.481491 435.240234,71.291794 427.974854,70.234772 
	C419.831238,69.049965 412.361206,72.424194 405.914612,77.597672 
	C403.609894,79.447227 399.505829,81.393013 399.487854,83.325211 
	C399.428650,89.699509 394.862885,91.826920 390.830597,94.439056 
	C389.517426,95.289734 387.179962,94.594429 385.312653,94.543983 
	C383.626251,94.498428 381.154633,93.651924 380.438354,94.439743 
	C379.315704,95.674507 378.396545,98.709412 379.128479,99.706230 
	C381.160278,102.473274 381.644867,105.133751 381.074768,108.340149 
	C380.931427,109.146446 381.667877,110.109177 381.991455,111.373520 
	C381.171387,112.401703 380.439758,113.440750 379.531372,113.629585 
	C377.739380,114.002106 375.849426,113.903481 374.000000,113.551529 
	C373.666656,108.402435 373.333344,103.701523 373.278748,98.795265 
	C374.266174,97.275330 375.151550,96.024208 375.650757,94.634392 
	C377.223297,90.256615 379.421936,88.291481 384.135071,91.215424 
	C384.981842,91.740746 387.782898,90.424263 388.756500,89.213936 
	C393.370941,83.477554 391.898773,77.087166 389.865692,70.886108 
	C389.159485,68.732094 387.573914,66.866364 385.961975,64.146912 
	C383.181519,69.140984 380.997345,73.064056 378.226501,78.040863 
	C374.527252,70.791191 372.838593,64.567154 374.622406,57.892334 
	C376.146393,52.189888 378.187592,46.625668 380.000000,41.000305 
M392.990631,55.408707 
	C394.536530,54.639359 396.082428,53.870010 397.714722,53.057659 
	C395.264984,50.881870 392.994995,48.865730 390.609253,46.746780 
	C388.121277,48.450760 384.879364,54.917782 386.510834,56.207150 
	C387.646027,57.104351 390.351532,56.014660 392.990631,55.408707 
M597.202454,198.150757 
	C599.856201,199.796082 599.856201,199.796082 600.324524,194.070999 
	C598.796204,195.674118 597.955322,196.556183 597.202454,198.150757 
z"/>
<path fill="#03D40B" opacity="1.000000" stroke="none" 
	d="
M565.892761,229.004990 
	C567.124390,230.871490 568.356018,232.737976 570.294861,235.676315 
	C572.574768,230.983917 575.115356,226.995590 576.502686,222.639954 
	C579.347839,213.707169 581.562866,204.574219 584.060242,195.529984 
	C585.797180,189.239731 587.933105,183.177734 595.148987,178.278671 
	C595.596924,181.952148 596.762756,184.970367 596.136536,187.554199 
	C593.889465,196.824966 591.507996,206.120255 588.254944,215.071045 
	C585.887390,221.585114 588.870544,226.205109 591.729675,231.157364 
	C592.459839,232.422028 593.863098,233.282913 594.689819,234.509445 
	C600.073425,242.496078 600.300781,242.599747 607.951904,236.983826 
	C609.947083,235.519394 611.480835,233.385132 613.555420,232.081970 
	C615.484192,230.870392 618.551453,229.075500 619.880005,229.801651 
	C622.667786,231.325317 625.735474,233.948364 626.750183,236.807800 
	C630.021851,246.026978 626.059387,253.822296 620.524780,261.096222 
	C619.467285,262.486023 619.283997,264.541046 618.827759,266.589844 
	C617.843140,267.880432 616.728088,268.870361 614.943115,269.917786 
	C613.515076,270.643097 612.756958,271.310944 611.998840,271.978760 
	C611.998840,271.978760 611.876831,272.231171 611.374512,272.178070 
	C610.232117,272.694427 609.592163,273.263916 608.952148,273.833374 
	C608.480835,274.171295 608.009460,274.509216 607.010864,274.609497 
	C602.563660,275.574615 598.715210,277.386322 594.709229,277.856354 
	C585.693237,278.914124 576.602173,279.829559 567.536560,279.879730 
	C528.962952,280.093231 490.387451,279.958466 451.812683,280.005463 
	C449.896393,280.007812 447.980713,280.522095 446.064758,280.798004 
	C443.007843,280.878479 439.950958,280.958954 436.400391,280.599457 
	C434.933289,280.364777 433.959869,280.570038 432.986420,280.775299 
	C431.596313,280.851227 430.206207,280.927155 428.309204,280.507660 
	C424.549316,279.966461 421.296265,279.920685 418.043243,279.874908 
	C417.577789,279.885956 417.112305,279.897003 416.231995,279.411560 
	C410.788452,277.319061 405.759796,275.723053 400.731140,274.127045 
	C400.731140,274.127045 400.286072,274.107727 400.166565,273.588013 
	C401.900635,272.360901 403.754211,271.653564 406.572418,270.578094 
	C401.767944,267.640869 397.576904,265.078644 392.691345,262.091827 
	C392.542755,264.398743 392.469543,265.535583 392.395294,266.688263 
	C390.905273,266.473389 389.782379,266.311493 388.659515,266.149597 
	C386.871063,264.541870 385.082642,262.934174 383.092407,260.850037 
	C382.747894,260.167114 382.556671,260.026794 382.316895,259.952606 
	C382.316895,259.952606 382.053314,259.904449 381.980316,259.630554 
	C381.774933,259.179260 381.599945,259.070099 381.382385,259.029083 
	C379.209473,256.051544 377.036560,253.074036 374.833496,249.471771 
	C374.567383,248.563141 374.331390,248.279236 374.095428,247.995331 
	C374.095428,247.995331 374.001282,247.967957 373.988159,247.644821 
	C373.674408,246.882477 373.373779,246.443283 373.073181,246.004074 
	C373.073181,246.004074 372.993011,245.970673 373.002655,245.497223 
	C373.685669,239.951065 373.805328,234.714615 375.239014,229.866745 
	C376.106567,226.933167 379.010803,224.601883 381.040131,222.369019 
	C382.581787,229.709976 386.343597,234.088745 394.372375,234.004517 
	C395.544159,234.204483 396.475342,234.199539 397.121765,234.626160 
	C401.808929,237.719376 406.596344,240.694016 411.045197,244.106216 
	C416.212799,248.069687 423.815338,250.201828 423.205719,258.985504 
	C423.168884,259.515686 423.748230,260.229919 424.229523,260.633698 
	C432.222717,267.340820 441.396820,271.258881 451.884369,270.756989 
	C463.839752,270.184906 475.748138,268.597687 487.704163,268.079834 
	C506.990845,267.244385 525.558960,274.482788 544.998779,273.323090 
	C555.245178,272.711823 565.347656,272.322662 574.992798,268.404510 
	C578.323303,267.051544 581.851746,266.173767 585.144958,264.744995 
	C587.591187,263.683685 589.803589,262.083496 592.120178,260.723358 
	C591.845459,260.139679 591.570801,259.556000 591.296082,258.972351 
	C589.395691,259.199188 587.387695,259.925018 585.618408,259.543549 
	C582.450073,258.860413 577.251099,258.120178 576.747986,256.325378 
	C575.232239,250.918457 572.380798,251.910141 568.765747,252.604324 
	C568.152039,249.701065 567.631348,247.186432 567.143494,244.283447 
	C566.699158,241.578735 566.221985,239.262390 565.819336,236.510330 
	C565.893555,233.718063 565.893188,231.361526 565.892761,229.004990 
z"/>
<path fill="#2C497F" opacity="1.000000" stroke="none" 
	d="
M11.505062,177.688812 
	C10.720148,176.191055 10.112774,174.611343 10.109281,173.030289 
	C10.061495,151.401978 10.097123,129.773499 10.096855,107.693512 
	C18.079638,104.849854 22.490355,109.271225 25.746956,116.469269 
	C32.529140,111.061836 39.411419,107.329735 47.725460,107.005882 
	C56.570320,106.661369 63.303974,109.887985 67.434387,118.178360 
	C71.422737,115.537376 75.097015,112.774002 79.066521,110.533722 
	C95.235825,101.408272 109.928017,108.063591 112.773537,126.423851 
	C114.216385,135.733643 113.831741,145.341125 114.065224,154.819168 
	C114.245331,162.130768 114.101151,169.450348 114.101151,177.166229 
	C108.198799,177.166229 102.666130,177.166229 96.451157,177.166229 
	C96.451157,175.231903 96.450676,173.454468 96.451233,171.677032 
	C96.454689,160.677689 96.459595,149.678360 96.460243,138.679016 
	C96.460312,137.513062 96.489845,136.343613 96.414062,135.181747 
	C95.959961,128.219177 93.177635,123.657120 88.643631,122.382866 
	C83.546089,120.950226 74.775536,124.247871 71.937576,129.085678 
	C70.923996,130.813461 70.636154,133.171463 70.619598,135.246613 
	C70.509361,149.060165 70.562447,162.875031 70.562447,177.129150 
	C64.679665,177.129150 59.160934,177.129150 53.134251,177.129150 
	C53.134251,164.964050 53.159054,153.005386 53.116001,141.046967 
	C53.105827,138.221130 53.217865,135.326431 52.672287,132.583008 
	C50.522751,121.774170 40.395443,118.419044 31.830370,125.532204 
	C28.723745,128.112213 27.039244,131.114380 27.108290,135.425735 
	C27.329432,149.234009 27.190437,163.048065 27.190437,177.606247 
	C21.849258,177.606247 16.906307,177.606247 11.505062,177.688812 
z"/>
<path fill="#2B487F" opacity="1.000000" stroke="none" 
	d="
M809.735718,166.999908 
	C809.735779,146.749023 809.735779,126.998138 809.735779,107.556969 
	C817.932739,104.580948 822.519409,108.626259 826.203552,114.888016 
	C827.637146,114.011017 828.774414,113.430298 829.785461,112.679573 
	C846.371155,100.363968 868.768982,107.271591 875.241577,126.811356 
	C878.697327,137.243851 878.721680,147.814377 875.109070,158.188507 
	C868.003540,178.593491 843.497742,183.408249 827.244019,169.752365 
	C827.244019,181.916443 827.244019,193.531937 827.244019,205.439575 
	C821.153564,205.439575 815.755493,205.439575 809.735657,205.439575 
	C809.735657,192.680557 809.735657,180.090240 809.735718,166.999908 
M831.944702,126.355202 
	C828.237549,129.447968 826.536560,133.273178 826.940063,138.214798 
	C827.264404,142.186768 826.934875,146.208282 827.044495,150.203720 
	C827.084167,151.651062 827.144958,153.365494 827.900574,154.480820 
	C831.921997,160.416718 837.860596,162.555725 844.783813,162.161560 
	C851.654602,161.770370 856.573792,158.218628 858.578796,151.717453 
	C859.775940,147.835709 860.348938,143.495102 860.021301,139.456619 
	C858.747620,123.760429 845.845337,117.522926 831.944702,126.355202 
z"/>
<path fill="#01D406" opacity="1.000000" stroke="none" 
	d="
M394.000000,233.999390 
	C386.343597,234.088745 382.581787,229.709976 381.038818,221.943588 
	C380.254181,216.174713 379.511017,211.200317 378.767853,206.225906 
	C378.095673,206.252533 377.423523,206.279144 376.751373,206.305771 
	C375.846100,211.555099 374.470398,216.777832 374.171509,222.061462 
	C373.888306,227.068695 371.513062,228.409714 367.151886,227.997559 
	C366.890625,226.888657 366.629364,225.779739 366.818420,224.316528 
	C369.713562,221.779434 370.441254,219.924103 366.321198,218.993195 
	C366.224762,208.296295 366.128296,197.599396 366.546387,186.578735 
	C367.562317,190.998154 368.063721,195.741333 368.565155,200.484528 
	C370.319550,199.346893 371.593292,197.891312 371.618195,196.414658 
	C371.744446,188.931046 371.669464,181.437546 371.400421,173.957016 
	C371.295258,171.031830 369.407166,169.547882 366.332336,170.000198 
	C366.254089,159.267288 366.175812,148.534393 366.663635,137.379654 
	C368.568207,135.842194 370.350037,134.982727 371.168182,133.566544 
	C374.688171,127.473595 373.483490,120.593224 374.000000,113.999695 
	C375.849426,113.903481 377.739380,114.002106 379.531372,113.629585 
	C380.439758,113.440750 381.171387,112.401703 382.265900,111.173752 
	C387.634308,104.699905 392.495697,98.582092 397.908508,92.998932 
	C400.287018,90.545586 402.025848,92.250099 402.053955,95.719620 
	C399.610962,100.647934 396.892395,105.109138 395.066742,109.909920 
	C394.198700,112.192558 395.032257,115.122292 395.072998,118.110809 
	C395.250366,119.132828 395.449677,119.802925 395.648987,120.473022 
	C396.123260,120.255089 396.597504,120.037163 397.408264,119.957275 
	C400.144958,120.354156 402.545227,120.613014 405.109833,121.210449 
	C405.544617,123.972908 406.321625,126.471840 405.976013,128.804443 
	C405.330353,133.161972 404.106873,137.442261 402.989075,141.719482 
	C401.391479,147.832535 399.672821,153.913940 397.736389,159.782410 
	C397.323090,154.508240 397.179260,149.460510 397.035431,144.412796 
	C396.299744,144.358719 395.564056,144.304657 394.828400,144.250595 
	C393.885590,147.833939 392.942810,151.417267 391.641357,155.038940 
	C387.725647,157.795517 384.283112,159.983734 381.297272,154.244171 
	C381.106873,153.878159 377.445679,154.518845 377.362885,155.017426 
	C376.372742,160.978073 375.177887,167.004440 375.218475,173.005600 
	C375.252106,177.969116 376.859711,182.921982 377.769928,187.879547 
	C378.328003,187.846603 378.886108,187.813675 379.444214,187.780731 
	C380.692596,186.168320 381.940979,184.555908 383.213715,182.912048 
	C385.319153,184.035202 387.159576,185.016998 389.386932,185.999634 
	C393.182983,187.333847 396.592102,188.667236 400.070465,190.364868 
	C406.034302,194.092148 407.328369,193.822983 409.323608,188.766357 
	C410.758972,188.428101 411.869843,188.209854 413.318909,188.143585 
	C415.105103,188.529129 416.553162,188.762726 417.995605,189.374573 
	C417.053253,192.173553 414.900116,194.904465 415.422516,196.953079 
	C416.667847,201.836548 413.654480,202.559891 410.561127,204.008621 
	C408.578278,204.937271 406.856049,206.463791 405.108398,207.838531 
	C403.968292,208.735336 403.163086,210.340927 401.913635,210.767761 
	C395.803650,212.855042 395.793823,219.520294 392.173706,223.446777 
	C391.779205,223.874634 392.480377,225.298599 392.651245,226.264435 
	C393.107269,228.841614 393.551239,231.420929 394.000000,233.999390 
z"/>
<path fill="#2E4A80" opacity="1.000000" stroke="none" 
	d="
M333.865112,157.259674 
	C334.041931,158.146378 334.119568,158.640472 334.222900,159.129150 
	C336.957306,172.057983 337.007202,172.274536 324.283905,175.807709 
	C315.330963,178.293884 306.102936,178.675003 297.117523,176.015030 
	C282.162933,171.587936 274.298157,160.862595 272.675598,145.789536 
	C271.129791,131.429001 275.849518,119.060112 288.661316,111.673706 
	C300.212097,105.014328 312.989349,105.110985 324.538788,111.693748 
	C336.384430,118.445320 339.343842,130.241806 338.817505,143.160294 
	C338.695251,146.161545 337.284363,147.029831 334.372620,146.999237 
	C321.714050,146.866196 309.053284,146.940430 296.393311,146.939377 
	C294.586884,146.939240 292.780426,146.939362 290.982544,146.939362 
	C290.849243,156.115234 299.380188,163.678070 309.393707,162.401733 
	C316.693420,161.471313 323.754059,158.694000 330.941498,156.817520 
	C331.822784,156.587433 332.829376,156.837189 333.865112,157.259674 
M314.106384,123.909332 
	C304.181824,120.148682 291.403534,124.699341 291.261658,133.785767 
	C301.056671,133.785767 310.851654,133.785767 320.890015,133.785767 
	C320.582458,129.103180 318.347168,126.273804 314.106384,123.909332 
z"/>
<path fill="#2D497F" opacity="1.000000" stroke="none" 
	d="
M131.569687,169.356064 
	C121.579865,152.602280 129.036530,136.628143 148.040604,134.318176 
	C155.395935,133.424118 162.950882,134.172256 170.255219,134.172256 
	C171.471893,127.351517 169.869598,124.360847 164.224823,122.997452 
	C155.196182,120.816742 146.368210,122.400833 137.677963,125.091385 
	C136.431015,125.477455 135.230560,126.013695 133.324951,126.741554 
	C132.779221,122.268753 132.110214,118.231422 131.909729,114.170952 
	C131.856689,113.096779 133.025833,111.257431 134.008270,110.944267 
	C145.881638,107.159561 157.921310,104.787163 170.260727,108.706253 
	C179.583878,111.667358 185.859619,118.319023 186.393219,127.774635 
	C187.317734,144.157440 186.649857,160.630096 186.649857,177.164307 
	C179.826233,178.130936 173.033951,179.360367 171.005966,170.034592 
	C155.363373,180.495316 140.730637,180.230362 131.569687,169.356064 
M164.287018,159.967667 
	C169.360214,156.577637 172.546143,152.372925 170.156738,144.980957 
	C163.464310,145.346542 156.520020,145.319611 149.704742,146.243896 
	C145.310516,146.839859 142.918411,151.234192 143.563293,155.653564 
	C144.234283,160.251953 147.095200,163.078430 151.616592,162.852798 
	C155.656265,162.651199 159.634933,161.227249 164.287018,159.967667 
z"/>
<path fill="#2B4C80" opacity="1.000000" stroke="none" 
	d="
M658.948547,122.017738 
	C658.609375,118.313370 659.953003,115.453156 662.470154,112.616165 
	C668.546997,105.767273 674.088867,98.443802 680.161987,91.591354 
	C681.593689,89.975876 684.272095,89.465248 687.341431,87.979485 
	C687.341431,94.941414 687.341431,100.237076 687.341431,106.143242 
	C693.947754,106.143242 700.182434,106.143242 706.765564,106.143242 
	C706.765564,111.623703 706.765564,116.491554 706.765564,122.009300 
	C700.301636,122.009300 694.068298,122.009300 687.643250,122.009300 
	C687.643250,133.083817 687.299561,143.531021 687.786743,153.939346 
	C688.034241,159.227646 692.263428,161.855377 697.788574,161.207489 
	C700.740540,160.861359 703.638306,160.052597 707.011169,159.360092 
	C707.011169,163.669403 707.262451,167.835129 706.869263,171.939102 
	C706.739014,173.298172 705.177124,175.257858 703.881409,175.645859 
	C696.388306,177.889725 688.780273,178.280136 681.339539,175.317902 
	C672.811279,171.922714 670.258301,164.657211 670.009399,156.417404 
	C669.692505,145.929153 669.893982,135.425262 669.764282,124.081161 
	C666.087280,122.828728 662.517883,122.423233 658.948547,122.017738 
z"/>
<path fill="#2F4B81" opacity="1.000000" stroke="none" 
	d="
M720.270630,165.960449 
	C720.270630,146.148834 720.270630,126.831238 720.270630,106.721710 
	C724.371338,107.409889 728.895874,104.412697 731.725037,108.617043 
	C733.964111,111.944420 734.819397,116.202866 736.634521,120.951042 
	C743.733887,110.867104 752.169250,104.688896 765.193054,107.218063 
	C764.340820,112.080032 763.701294,116.658058 762.614563,121.127327 
	C762.402954,121.997421 760.448669,123.008011 759.303406,123.001778 
	C743.301025,122.914749 738.046326,134.310608 737.873108,146.369141 
	C737.727478,156.507095 737.843140,166.648788 737.843140,177.185410 
	C731.955017,177.185410 726.555481,177.185410 720.270569,177.185410 
	C720.270569,173.613785 720.270569,170.034134 720.270630,165.960449 
z"/>
<path fill="#2C487F" opacity="1.000000" stroke="none" 
	d="
M221.034439,143.015381 
	C221.069397,153.709991 221.104355,164.404587 220.539154,175.548340 
	C214.761688,175.994263 209.584396,175.991043 204.407120,175.987823 
	C204.289368,172.351608 204.071259,168.715439 204.069824,165.079178 
	C204.058960,137.690781 204.090744,110.302391 204.678955,82.459396 
	C210.465057,82.003548 215.681396,82.002296 220.897705,82.001045 
	C220.985580,100.711243 221.073441,119.421440 220.934692,138.894745 
	C220.816879,140.777023 220.925659,141.896210 221.034439,143.015381 
z"/>
<path fill="#2D4980" opacity="1.000000" stroke="none" 
	d="
M221.383377,142.985016 
	C220.925659,141.896210 220.816879,140.777023 220.838806,139.358917 
	C222.292419,138.160675 223.969818,137.528671 224.881638,136.319397 
	C231.596756,127.413742 238.283859,118.480545 244.694763,109.355759 
	C246.668488,106.546509 248.801956,105.523575 252.127045,105.692581 
	C257.048065,105.942711 261.991241,105.757248 268.507812,105.757248 
	C258.736023,118.119255 249.842926,129.369659 240.638351,141.014084 
	C250.982651,152.839966 261.214905,164.537735 272.386017,177.308853 
	C264.591858,177.308853 258.174347,177.445099 251.773178,177.183075 
	C250.622543,177.135971 249.366379,175.590988 248.451981,174.493423 
	C241.098434,165.666916 233.837143,156.763626 226.491837,147.930222 
	C225.027939,146.169739 223.325012,144.608032 221.383377,142.985016 
z"/>
<path fill="#29467D" opacity="1.000000" stroke="none" 
	d="
M791.439087,111.062622 
	C791.440857,133.302002 791.440857,155.047791 791.440857,177.108582 
	C785.450806,177.108582 780.059143,177.108582 774.362732,177.108582 
	C774.362732,153.760223 774.362732,130.561371 774.362732,106.788567 
	C779.328979,106.788567 784.115723,106.585548 788.856812,106.959717 
	C789.805969,107.034630 790.581665,109.308876 791.439087,111.062622 
z"/>
<path fill="#0CD30C" opacity="1.000000" stroke="none" 
	d="
M633.229614,249.756714 
	C632.926025,248.450226 632.631775,246.858734 632.793274,245.314896 
	C633.806458,235.626236 635.610718,225.966629 635.870422,216.263107 
	C636.586670,189.494156 636.617249,162.707336 637.112854,135.931168 
	C637.150024,133.923920 638.982849,132.012665 639.523193,129.937576 
	C640.382996,126.635887 640.857178,123.233803 641.494507,119.874191 
	C640.849182,119.757820 640.203796,119.641449 639.558411,119.525078 
	C639.205261,122.146202 638.852112,124.767319 638.498962,127.388435 
	C638.013611,127.384071 637.528320,127.379707 637.043030,127.375343 
	C637.043030,124.241608 637.062988,121.107727 637.038574,117.974190 
	C636.997681,112.732254 636.889343,107.490616 636.879639,102.248726 
	C636.861877,92.668297 636.924438,83.087685 636.892517,73.507347 
	C636.880432,69.865883 636.700256,66.224960 636.302979,62.290787 
	C636.008667,61.554741 636.008057,61.111698 636.281616,60.093517 
	C636.776489,58.729259 636.814087,57.817875 637.246521,57.170162 
	C641.136169,51.344692 640.362854,49.251301 634.311157,45.637699 
	C632.593262,44.611897 631.891174,41.562031 631.265381,39.291039 
	C631.133484,38.812340 633.377380,37.678944 634.526550,36.847206 
	C636.970947,43.321140 639.415344,49.795086 641.957275,57.056454 
	C642.116577,71.645432 642.178467,85.446991 642.109619,99.613571 
	C642.090454,112.584435 642.201965,125.190277 642.440308,138.261230 
	C642.600769,165.159378 642.644104,191.592422 642.644226,218.025467 
	C642.644226,219.668152 642.304443,221.310837 641.910156,223.053207 
	C641.778870,223.764053 641.860107,224.375214 641.998413,225.322220 
	C642.103455,226.106018 642.151489,226.553955 642.199585,227.001907 
	C641.968140,227.753555 641.736633,228.505203 641.104980,229.692932 
	C640.738708,230.734695 640.772644,231.340378 640.806641,231.946075 
	C638.354309,237.795288 635.901978,243.644516 633.229614,249.756714 
z"/>
<path fill="#01D406" opacity="1.000000" stroke="none" 
	d="
M379.959137,40.626781 
	C378.187592,46.625668 376.146393,52.189888 374.622406,57.892334 
	C372.838593,64.567154 374.527252,70.791191 378.226501,78.040863 
	C380.997345,73.064056 383.181519,69.140984 385.961975,64.146912 
	C387.573914,66.866364 389.159485,68.732094 389.865692,70.886108 
	C391.898773,77.087166 393.370941,83.477554 388.756500,89.213936 
	C387.782898,90.424263 384.981842,91.740746 384.135071,91.215424 
	C379.421936,88.291481 377.223297,90.256615 375.650757,94.634392 
	C375.151550,96.024208 374.266174,97.275330 372.991058,98.520645 
	C371.676331,94.062668 370.928040,89.673965 370.179749,85.285271 
	C369.555145,85.366554 368.930573,85.447838 368.305969,85.529129 
	C368.204132,87.066849 368.019867,88.604279 368.014252,90.142357 
	C367.984711,98.228226 368.085999,106.315987 367.924988,114.398758 
	C367.894257,115.940376 366.889587,117.462593 366.334259,118.993759 
	C366.287628,100.653221 366.240997,82.312691 366.482330,63.406059 
	C366.951385,62.579842 367.063263,62.292763 367.324280,61.791397 
	C367.253693,61.027115 366.964783,60.450153 366.675842,59.873184 
	C367.147095,57.125446 367.618317,54.377712 368.425598,51.117378 
	C368.897583,50.372318 368.955750,50.121788 368.936188,49.853195 
	C371.250061,44.434258 373.563934,39.015316 376.162964,33.384666 
	C377.604858,35.533058 378.761566,37.893158 379.959137,40.626781 
z"/>
<path fill="#F8FAFA" opacity="1.000000" stroke="none" 
	d="
M642.240356,99.248550 
	C642.178467,85.446991 642.116577,71.645432 642.118042,57.417484 
	C645.341003,57.352234 646.095520,59.259720 646.052246,62.214275 
	C645.911987,71.784714 645.920471,81.359619 646.054932,90.930229 
	C646.089233,93.374008 646.774414,95.812981 647.207764,98.245750 
	C647.780823,101.462662 648.568909,104.651245 648.954041,107.888931 
	C649.363708,111.332626 648.915100,114.941002 649.728760,118.259827 
	C651.043823,123.623009 651.459045,128.316666 648.126709,133.424622 
	C646.464722,135.972015 647.021118,140.160904 647.082214,143.598267 
	C647.214783,151.053192 647.892944,158.500473 647.955627,165.954163 
	C648.096924,182.773285 648.001099,199.594391 647.999084,216.414688 
	C647.998596,220.741669 647.303589,224.735092 642.541870,226.956482 
	C642.151489,226.553955 642.103455,226.106018 642.152222,225.095749 
	C642.206848,224.006790 642.164734,223.480164 642.122681,222.953522 
	C642.304443,221.310837 642.644226,219.668152 642.644226,218.025467 
	C642.644104,191.592422 642.600769,165.159378 642.592285,137.833450 
	C642.491638,124.376564 642.365967,111.812553 642.240356,99.248550 
z"/>
<path fill="#03D307" opacity="1.000000" stroke="none" 
	d="
M634.416748,36.503025 
	C633.377380,37.678944 631.133484,38.812340 631.265381,39.291039 
	C631.891174,41.562031 632.593262,44.611897 634.311157,45.637699 
	C640.362854,49.251301 641.136169,51.344692 637.246521,57.170162 
	C636.814087,57.817875 636.776489,58.729259 636.282532,59.761227 
	C633.242676,56.637875 632.640381,51.862759 627.299866,50.002563 
	C625.065796,49.224388 622.844360,43.586094 623.378052,40.661293 
	C624.594788,33.993568 620.878235,30.396837 616.987671,26.687668 
	C612.760132,22.657270 608.174194,19.002823 602.295105,13.935086 
	C604.448914,12.765899 605.597778,12.142275 606.894287,11.217239 
	C619.659241,15.518567 627.627441,25.142811 634.416748,36.503025 
z"/>
<path fill="#6A6B6C" opacity="1.000000" stroke="none" 
	d="
M10.450336,4.125863 
	C11.328389,3.696811 12.669547,3.053252 14.010821,3.053009 
	C137.043579,3.030667 260.076355,3.057564 383.572815,3.347857 
	C384.036530,3.614527 384.087982,4.032556 384.087982,4.032556 
	C382.926941,4.102884 381.765869,4.234809 380.604828,4.234797 
	C257.374390,4.233497 134.143936,4.222292 10.450336,4.125863 
z"/>
<path fill="#10D91A" opacity="1.000000" stroke="none" 
	d="
M446.421997,280.974365 
	C447.980713,280.522095 449.896393,280.007812 451.812683,280.005463 
	C490.387451,279.958466 528.962952,280.093231 567.536560,279.879730 
	C576.602173,279.829559 585.693237,278.914124 594.709229,277.856354 
	C598.715210,277.386322 602.563660,275.574615 606.713074,274.600616 
	C599.158508,276.912903 591.396790,280.697906 583.586914,280.799835 
	C537.990601,281.395081 492.383026,281.127167 446.421997,280.974365 
z"/>
<path fill="#01D107" opacity="1.000000" stroke="none" 
	d="
M366.188110,119.439011 
	C366.889587,117.462593 367.894257,115.940376 367.924988,114.398758 
	C368.085999,106.315987 367.984711,98.228226 368.014252,90.142357 
	C368.019867,88.604279 368.204132,87.066849 368.305969,85.529129 
	C368.930573,85.447838 369.555145,85.366554 370.179749,85.285271 
	C370.928040,89.673965 371.676331,94.062668 372.712311,98.725990 
	C373.333344,103.701523 373.666656,108.402435 374.000000,113.551521 
	C373.483490,120.593224 374.688171,127.473595 371.168182,133.566544 
	C370.350037,134.982727 368.568207,135.842194 366.797211,136.928040 
	C366.257111,131.226929 366.149567,125.555595 366.188110,119.439011 
z"/>
<path fill="#324E83" opacity="1.000000" stroke="none" 
	d="
M784.589783,95.826477 
	C777.981873,95.540092 773.970581,91.852226 774.090515,86.597466 
	C774.199402,81.825989 778.304382,77.906425 783.231689,77.869225 
	C787.229126,77.839043 790.929260,80.906677 791.786987,84.962013 
	C792.722656,89.386093 790.244080,93.312759 784.589783,95.826477 
z"/>
<path fill="#6A6B6C" opacity="1.000000" stroke="none" 
	d="
M694.016785,3.172768 
	C703.996826,3.118603 713.976929,3.019780 723.956970,3.017538 
	C787.513245,3.003259 851.069580,3.007792 914.625854,3.021782 
	C916.612000,3.022219 918.598083,3.192905 920.798645,3.661865 
	C920.020264,4.109910 919.027466,4.241930 918.034668,4.241931 
	C843.662415,4.242043 769.290100,4.231735 694.463867,3.918256 
	C694.009827,3.614264 694.016785,3.172768 694.016785,3.172768 
z"/>
<path fill="#69A573" opacity="1.000000" stroke="none" 
	d="
M384.539368,4.130735 
	C384.087982,4.032556 384.036530,3.614527 384.041260,3.404037 
	C398.168457,3.113023 412.290924,2.969046 426.413452,2.963622 
	C472.627655,2.945874 518.841858,2.978555 565.528809,3.198120 
	C566.001465,3.404394 566.012817,3.719457 565.550964,3.813925 
	C521.660339,3.912234 478.231506,3.874865 434.802979,3.973568 
	C429.543427,3.985521 424.285553,4.731694 419.026886,5.137577 
	C417.659302,5.461112 416.291687,5.784652 414.641052,5.724177 
	C413.208435,5.039300 412.058868,4.738436 410.909332,4.437573 
	C402.269806,4.368021 393.630280,4.298468 384.539368,4.130735 
z"/>
<path fill="#04D50A" opacity="1.000000" stroke="none" 
	d="
M367.075439,228.393768 
	C371.513062,228.409714 373.888306,227.068695 374.171509,222.061462 
	C374.470398,216.777832 375.846100,211.555099 376.751373,206.305771 
	C377.423523,206.279144 378.095673,206.252533 378.767853,206.225906 
	C379.511017,211.200317 380.254181,216.174713 380.998657,221.574554 
	C379.010803,224.601883 376.106567,226.933167 375.239014,229.866745 
	C373.805328,234.714615 373.685669,239.951065 373.020020,245.457428 
	C371.018127,240.190704 369.008545,234.490341 367.075439,228.393768 
z"/>
<path fill="#01D107" opacity="1.000000" stroke="none" 
	d="
M366.184937,170.446411 
	C369.407166,169.547882 371.295258,171.031830 371.400421,173.957016 
	C371.669464,181.437546 371.744446,188.931046 371.618195,196.414658 
	C371.593292,197.891312 370.319550,199.346893 368.565155,200.484528 
	C368.063721,195.741333 367.562317,190.998154 366.693970,186.131699 
	C366.230530,180.969833 366.134033,175.931213 366.184937,170.446411 
z"/>
<path fill="#10D91A" opacity="1.000000" stroke="none" 
	d="
M388.801453,266.460144 
	C389.782379,266.311493 390.905273,266.473389 392.395294,266.688263 
	C392.469543,265.535583 392.542755,264.398743 392.691345,262.091827 
	C397.576904,265.078644 401.767944,267.640869 406.572418,270.578094 
	C403.754211,271.653564 401.900635,272.360901 400.029724,273.412262 
	C396.322754,271.427704 392.633087,269.099182 388.801453,266.460144 
z"/>
<path fill="#737C75" opacity="1.000000" stroke="none" 
	d="
M693.551636,3.102105 
	C694.016785,3.172768 694.009827,3.614264 694.000610,3.834902 
	C667.606445,4.086305 641.221436,4.117069 614.393799,3.876314 
	C613.951172,3.604794 613.929565,3.234386 613.929565,3.234386 
	C640.315247,3.166738 666.700867,3.099090 693.551636,3.102105 
z"/>
<path fill="#6DAC7E" opacity="1.000000" stroke="none" 
	d="
M613.474548,3.162234 
	C613.929565,3.234386 613.951172,3.604794 613.925537,3.788650 
	C608.594849,4.016097 603.289673,4.059689 597.211060,4.074662 
	C595.560913,4.674967 594.684265,5.303891 593.807617,5.932815 
	C590.840698,5.543403 587.873779,5.153991 584.144897,4.549887 
	C577.592957,4.129950 571.802856,3.924704 566.012817,3.719458 
	C566.012817,3.719457 566.001465,3.404394 565.994385,3.246960 
	C581.664734,3.089712 597.342102,3.089897 613.474548,3.162234 
z"/>
<path fill="#2D4980" opacity="1.000000" stroke="none" 
	d="
M220.871368,81.611832 
	C215.681396,82.002296 210.465057,82.003548 204.805801,82.007248 
	C205.525040,81.501282 206.692245,80.550224 207.848495,80.563324 
	C212.182602,80.612427 216.513138,80.976562 220.871368,81.611832 
z"/>
<path fill="#2D4980" opacity="1.000000" stroke="none" 
	d="
M204.453400,176.351135 
	C209.584396,175.991043 214.761688,175.994263 220.395782,175.997742 
	C215.401627,176.236816 209.950653,176.475632 204.453400,176.351135 
z"/>
<path fill="#10D91A" opacity="1.000000" stroke="none" 
	d="
M400.932434,274.419312 
	C405.759796,275.723053 410.788452,277.319061 415.918945,279.244812 
	C411.058441,277.953583 406.096069,276.332611 400.932434,274.419312 
z"/>
<path fill="#F8FAFA" opacity="1.000000" stroke="none" 
	d="
M658.714233,122.266220 
	C662.517883,122.423233 666.087280,122.828728 669.657959,123.624710 
	C666.725830,124.010284 663.785950,124.111191 660.863159,123.932503 
	C660.042908,123.882355 659.273010,123.009941 658.714233,122.266220 
z"/>
<path fill="#10D91A" opacity="1.000000" stroke="none" 
	d="
M418.372192,280.103455 
	C421.296265,279.920685 424.549316,279.966461 427.908386,280.378693 
	C424.910004,280.607422 421.805573,280.469696 418.372192,280.103455 
z"/>
<path fill="#04D50A" opacity="1.000000" stroke="none" 
	d="
M366.209229,219.406006 
	C370.441254,219.924103 369.713562,221.779434 366.921692,223.988708 
	C366.415558,222.616425 366.256409,221.217636 366.209229,219.406006 
z"/>
<path fill="#E7E9ED" opacity="1.000000" stroke="none" 
	d="
M594.152039,6.027780 
	C594.684265,5.303891 595.560913,4.674967 596.756592,4.164657 
	C597.047546,4.680940 597.019470,5.078610 596.684204,5.865254 
	C596.201721,6.354227 596.026428,6.454225 595.851196,6.554226 
	C595.399597,6.410402 594.948059,6.266573 594.152039,6.027780 
z"/>
<path fill="#E7E9ED" opacity="1.000000" stroke="none" 
	d="
M410.938721,4.767987 
	C412.058868,4.738436 413.208435,5.039300 414.292511,5.644987 
	C413.465454,6.124749 412.703827,6.299688 411.556122,6.443192 
	C411.102722,5.973973 411.035431,5.536188 410.938721,4.767987 
z"/>
<path fill="#10D91A" opacity="1.000000" stroke="none" 
	d="
M433.350098,280.925232 
	C433.959869,280.570038 434.933289,280.364777 435.960205,280.471222 
	C435.247040,280.880371 434.480438,280.977753 433.350098,280.925232 
z"/>
<path fill="#10D91A" opacity="1.000000" stroke="none" 
	d="
M612.313354,271.967407 
	C612.756958,271.310944 613.515076,270.643097 614.624756,269.985535 
	C614.193542,270.649231 613.410706,271.302643 612.313354,271.967407 
z"/>
<path fill="#6DAC7E" opacity="1.000000" stroke="none" 
	d="
M595.920288,6.773364 
	C596.026428,6.454225 596.201721,6.354227 596.665649,6.164411 
	C597.215149,6.255658 597.472046,6.442224 597.819397,6.850839 
	C597.272400,7.042428 596.630859,7.017467 595.920288,6.773364 
z"/>
<path fill="#10D91A" opacity="1.000000" stroke="none" 
	d="
M609.278687,273.827637 
	C609.592163,273.263916 610.232117,272.694427 611.234314,272.176636 
	C610.932739,272.759460 610.268982,273.290649 609.278687,273.827637 
z"/>
<path fill="#22D920" opacity="1.000000" stroke="none" 
	d="
M640.974182,231.733353 
	C640.772644,231.340378 640.738708,230.734695 640.915527,230.038788 
	C641.131348,230.472580 641.136536,230.996613 640.974182,231.733353 
z"/>
<path fill="#04D50A" opacity="1.000000" stroke="none" 
	d="
M366.427368,60.037704 
	C366.964783,60.450153 367.253693,61.027115 367.088623,61.777920 
	C366.634644,61.951763 366.165863,61.943916 366.165833,61.943916 
	C366.170197,61.363350 366.174530,60.782780 366.427368,60.037704 
z"/>
<path fill="#04D50A" opacity="1.000000" stroke="none" 
	d="
M373.062012,246.286560 
	C373.373779,246.443283 373.674408,246.882477 374.004211,247.598526 
	C373.705841,247.439926 373.378326,247.004486 373.062012,246.286560 
z"/>
<path fill="#10D91A" opacity="1.000000" stroke="none" 
	d="
M382.331146,260.156799 
	C382.556671,260.026794 382.747894,260.167114 382.962708,260.538574 
	C382.722961,260.754395 382.493134,260.640198 382.331146,260.156799 
z"/>
<path fill="#47E842" opacity="1.000000" stroke="none" 
	d="
M366.120972,62.237907 
	C366.165863,61.943916 366.634644,61.951763 366.870300,61.965240 
	C367.063263,62.292763 366.951385,62.579842 366.564819,62.947453 
	C366.264893,62.880592 366.170471,62.706245 366.120972,62.237907 
z"/>
<path fill="#04D50A" opacity="1.000000" stroke="none" 
	d="
M368.759216,49.971191 
	C368.955750,50.121788 368.897583,50.372318 368.630920,50.749069 
	C368.353912,50.607567 368.381287,50.339508 368.759216,49.971191 
z"/>
<path fill="#10D91A" opacity="1.000000" stroke="none" 
	d="
M625.190308,261.475525 
	C625.057373,261.435364 625.262512,261.110992 625.356018,261.081543 
	C625.449524,261.052094 625.520508,261.320496 625.520508,261.320496 
	C625.520508,261.320496 625.323303,261.515717 625.190308,261.475525 
z"/>
<path fill="#10D91A" opacity="1.000000" stroke="none" 
	d="
M381.414368,259.201111 
	C381.599945,259.070099 381.774933,259.179260 381.978088,259.496582 
	C381.785065,259.692627 381.584229,259.604828 381.414368,259.201111 
z"/>
<path fill="#04D50A" opacity="1.000000" stroke="none" 
	d="
M374.109406,248.283813 
	C374.331390,248.279236 374.567383,248.563141 374.842407,249.128021 
	C374.628784,249.130096 374.376068,248.851181 374.109406,248.283813 
z"/>
<path fill="#05C507" opacity="1.000000" stroke="none" 
	d="
M565.550964,3.813925 
	C571.802856,3.924704 577.592957,4.129950 583.735352,4.553206 
	C580.133057,6.178133 576.258423,8.441605 572.207764,8.819600 
	C562.808594,9.696716 553.326904,9.796558 543.874207,9.972180 
	C521.435303,10.389071 498.990631,10.533498 476.555176,11.074102 
	C468.802338,11.260915 460.996124,13.277582 453.345734,12.704368 
	C442.376038,11.882451 431.522583,9.477299 420.637451,7.641923 
	C420.044220,7.541903 419.615387,6.467253 419.068451,5.491930 
	C424.285553,4.731694 429.543427,3.985521 434.802979,3.973568 
	C478.231506,3.874865 521.660339,3.912234 565.550964,3.813925 
z"/>
<path fill="#F6FDF5" opacity="1.000000" stroke="none" 
	d="
M412.980743,187.991608 
	C411.869843,188.209854 410.758972,188.428101 409.003113,188.686829 
	C406.956848,188.369598 405.555603,188.011887 404.102844,187.387482 
	C403.489807,186.698212 402.928223,186.275635 402.329773,185.437195 
	C402.034973,181.670456 400.950806,178.134476 401.653320,174.998779 
	C406.234833,154.549881 411.223846,134.192490 416.010162,113.788879 
	C416.421631,112.034821 416.328796,110.162460 416.470215,108.345047 
	C416.018158,108.171532 415.566132,107.998009 415.114075,107.824493 
	C411.724548,112.173622 408.335022,116.522751 404.945465,120.871872 
	C402.545227,120.613014 400.144958,120.354156 397.312439,119.676147 
	C396.285095,118.757622 395.690063,118.258255 395.094971,117.758896 
	C395.032257,115.122292 394.198700,112.192558 395.066742,109.909920 
	C396.892395,105.109138 399.610962,100.647934 402.373749,95.568718 
	C406.501892,89.924095 411.133667,86.204903 417.324951,84.053978 
	C423.652527,81.855713 429.969727,84.553635 431.295685,91.092216 
	C431.816284,93.659241 431.686127,96.358231 431.663513,99.341194 
	C430.177887,111.755974 425.615448,123.439926 425.956635,135.704620 
	C426.524170,135.887009 427.091705,136.069382 427.659241,136.251770 
	C430.870239,132.211639 434.081268,128.171509 437.577057,123.967224 
	C444.798401,114.195236 451.734924,104.587410 458.944000,94.764725 
	C462.138947,91.888962 465.061340,89.228050 468.255341,86.637161 
	C469.027985,86.496574 469.529053,86.285973 470.383606,86.196213 
	C473.187622,87.534943 475.638062,88.752823 478.088531,89.970695 
	C478.017365,90.307297 478.090149,90.609177 478.502380,91.345779 
	C478.758026,92.768005 478.818237,93.720802 478.616211,94.793602 
	C478.306793,95.270569 478.259552,95.627533 478.131042,96.370438 
	C476.337524,102.757942 474.625275,108.759483 472.712860,114.895798 
	C472.301666,115.316109 472.262909,115.623360 472.194519,116.295883 
	C471.093018,119.714844 470.193359,122.790260 469.109863,126.152771 
	C467.570404,131.334244 466.129089,136.208008 464.941467,141.142822 
	C464.737549,141.990204 465.614349,143.097672 465.991913,144.084991 
	C466.848206,143.558868 467.974152,143.228012 468.518707,142.476120 
	C473.425812,135.700409 478.230957,128.850830 483.350525,121.847763 
	C489.565643,113.830887 495.496155,105.989189 501.738495,98.010712 
	C510.358459,92.357635 516.957703,94.739937 518.694397,104.164383 
	C518.540649,104.927521 518.552246,105.468346 518.385132,106.382004 
	C515.149475,120.837502 512.092651,134.920166 508.840698,149.352539 
	C508.449615,154.569427 506.350861,159.491943 508.981812,165.993286 
	C512.951782,160.246414 516.107727,155.677917 519.538269,150.925568 
	C528.624512,135.681107 537.593445,120.709488 546.179871,105.521568 
	C550.331116,98.178658 552.844788,89.850525 560.006714,84.234543 
	C560.880066,83.947464 561.434204,83.654587 562.382080,83.460426 
	C563.854004,83.551155 564.932129,83.543167 566.301514,83.737244 
	C568.439636,85.634857 570.286438,87.330414 572.103760,89.388428 
	C572.184265,90.466476 572.294250,91.182076 572.275879,92.274750 
	C570.882629,95.891716 569.892334,99.273392 568.305725,102.347198 
	C561.013000,116.475250 556.084412,131.426834 552.838501,146.920334 
	C552.119507,150.352127 552.186218,154.273682 553.095642,157.644806 
	C554.437439,162.619141 559.226746,164.083130 563.352417,160.925888 
	C566.188049,158.755890 568.924316,156.016251 570.678711,152.944962 
	C581.633606,133.766541 592.299438,114.422974 603.289001,95.024940 
	C603.612427,94.607735 603.707947,94.299698 604.028320,93.739967 
	C605.817505,91.882019 607.381836,90.275764 609.347290,88.637634 
	C612.186157,88.275505 614.623901,87.945259 617.302856,87.827286 
	C618.387268,88.688202 619.230591,89.336845 620.073914,89.985489 
	C620.292969,90.771790 620.511963,91.558098 620.717163,92.758560 
	C620.688782,93.289795 620.637878,93.417091 620.667297,93.521835 
	C620.727234,93.734993 620.830444,93.935997 620.915894,94.142014 
	C619.713623,96.962715 618.511353,99.783417 616.978027,103.084106 
	C616.460510,104.045891 616.274170,104.527679 616.087891,105.009476 
	C604.986328,126.773148 593.804077,148.496323 582.842346,170.330200 
	C580.240662,175.512344 578.378052,181.065536 575.762451,186.936066 
	C575.235596,187.947159 575.121765,188.470261 575.007935,188.993347 
	C574.057861,192.124634 573.107788,195.255905 571.764893,198.917267 
	C571.295532,199.814682 571.219116,200.182007 571.142700,200.549347 
	C571.142700,200.549347 571.246643,200.806061 570.883667,201.127228 
	C570.465942,201.895966 570.411194,202.343521 570.356445,202.791061 
	C569.666687,205.973145 568.976929,209.155228 567.845459,212.933960 
	C567.336609,214.248657 567.269409,214.966705 567.202148,215.684769 
	C567.154236,216.296402 567.106323,216.908051 566.695679,217.988129 
	C566.250305,219.004395 566.167786,219.552261 566.085327,220.100128 
	C566.085327,220.100128 566.022339,220.035522 565.793701,220.202118 
	C565.581909,221.548721 565.598816,222.728714 565.615723,223.908707 
	C565.644043,224.391281 565.672424,224.873856 565.207886,225.837952 
	C565.058289,229.861679 565.401550,233.403870 565.744751,236.946060 
	C566.221985,239.262390 566.699158,241.578735 567.109497,244.745697 
	C567.344971,248.391510 567.647278,251.186707 567.953369,254.324188 
	C566.645996,255.907028 565.334778,257.147583 563.585144,258.330475 
	C561.089172,258.335297 559.031616,258.397766 556.681519,258.251587 
	C553.851440,256.022888 551.313782,254.002899 548.768494,251.744385 
	C548.631531,251.180267 548.394775,250.985168 548.022278,250.949646 
	C547.994141,250.978699 548.069641,250.949844 548.050354,250.630661 
	C547.773987,249.985886 547.516968,249.660294 547.294495,249.083817 
	C547.158630,248.548843 546.988159,248.264755 546.847412,247.670166 
	C546.649536,247.026443 546.421936,246.693237 546.233643,245.933563 
	C546.319275,241.004486 546.365723,236.501877 546.713989,231.918411 
	C546.941589,230.864944 546.867432,229.892334 546.716125,228.497314 
	C547.871033,214.338867 553.612976,201.962112 558.243042,189.166260 
	C558.153564,189.055328 558.289734,189.305679 558.510010,189.163269 
	C558.773865,188.685516 558.817322,188.350189 559.082153,187.684509 
	C559.666321,186.047440 560.029114,184.740692 560.452026,183.217270 
	C541.455750,185.699036 538.171021,181.755478 535.615295,153.105270 
	C528.289917,163.203186 521.513611,172.544159 514.443237,182.019455 
	C512.575928,183.711441 511.002777,185.269104 509.075531,186.849152 
	C505.070374,187.471069 501.419312,188.070633 497.567108,188.378693 
	C495.042572,185.321213 492.719177,182.555222 490.392639,179.667816 
	C490.389435,179.546417 490.163055,179.458405 490.546814,179.246704 
	C490.937256,177.028732 490.943909,175.022461 491.081665,172.683105 
	C491.188568,171.410675 491.164398,170.471329 491.330231,169.271515 
	C491.501160,168.391541 491.482025,167.772018 491.621277,166.712555 
	C492.134064,160.847183 492.488495,155.421722 493.003784,149.612793 
	C493.468994,145.645569 493.773315,142.061798 494.077606,138.478027 
	C493.742584,138.458511 493.407532,138.438995 493.072510,138.419464 
	C491.047882,141.613647 489.023254,144.807831 486.708405,148.168732 
	C478.596680,159.184921 470.775177,170.034393 462.677063,180.942078 
	C462.279449,181.332947 462.158447,181.665619 461.823364,182.247131 
	C459.738159,184.286911 457.867065,186.077835 455.592346,187.826538 
	C453.126038,188.177429 451.063354,188.570526 448.760590,188.743942 
	C447.057434,187.255524 445.594330,185.986801 443.983521,184.347931 
	C443.601013,181.557358 442.873322,179.061798 443.228516,176.731262 
	C444.119659,170.883835 445.704498,165.143372 446.631165,159.299744 
	C447.671814,152.737335 448.295380,146.108780 449.100433,139.509018 
	C448.444427,139.208984 447.788452,138.908966 447.132446,138.608948 
	C440.082581,149.002319 433.084381,159.431290 425.963257,169.775620 
	C421.735840,175.916534 417.314758,181.924088 412.980743,187.991608 
z"/>
<path fill="#04D50A" opacity="1.000000" stroke="none" 
	d="
M518.859741,103.942070 
	C516.957703,94.739937 510.358459,92.357635 501.337036,97.973068 
	C496.946350,100.390320 493.240601,102.665222 489.606750,105.049713 
	C488.315399,105.897087 487.198822,107.010742 486.002441,108.002823 
	C487.033234,105.610130 487.920990,103.142120 489.131073,100.843834 
	C490.639587,97.978798 492.441650,95.269783 494.065552,92.463631 
	C495.701996,89.635742 497.275421,86.771378 499.244171,83.268837 
	C496.381409,82.329491 493.895386,81.513771 490.553101,80.417084 
	C491.876038,79.643661 492.398926,79.063911 492.863922,79.107147 
	C500.026123,79.773430 507.183502,80.496376 514.334167,81.277916 
	C515.303284,81.383835 516.553589,81.592117 517.124084,82.238266 
	C520.957336,86.580055 524.410828,86.473305 527.905945,81.825905 
	C528.298889,81.303452 530.047424,81.077530 530.557434,81.482376 
	C534.092896,84.289017 535.709351,82.241508 538.188721,79.566261 
	C544.147583,73.136604 552.600464,72.200302 560.584045,72.363869 
	C566.917725,72.493652 573.855957,73.788620 579.273621,76.810852 
	C582.695984,78.720001 583.862915,84.733551 585.943359,88.954475 
	C586.691711,90.472733 587.153076,92.132439 587.745422,93.727570 
	C589.367981,92.775993 591.219116,92.071899 592.569031,90.825089 
	C596.205811,87.466103 599.513367,83.749329 603.166382,80.409477 
	C607.608948,76.347771 615.971436,76.361542 620.667969,80.210457 
	C621.567566,80.947678 622.527649,81.674858 623.217041,82.589630 
	C624.213501,83.912010 626.020569,86.230705 625.669250,86.667900 
	C624.497314,88.126396 622.517944,88.936104 620.460938,89.989960 
	C619.230591,89.336845 618.387268,88.688202 617.196655,87.491608 
	C613.687195,85.102089 611.147034,86.109238 608.946106,88.669510 
	C607.381836,90.275764 605.817505,91.882019 603.808350,93.855293 
	C603.102600,94.473114 603.001770,94.777054 603.061096,95.134109 
	C592.299438,114.422974 581.633606,133.766541 570.678711,152.944962 
	C568.924316,156.016251 566.188049,158.755890 563.352417,160.925888 
	C559.226746,164.083130 554.437439,162.619141 553.095642,157.644806 
	C552.186218,154.273682 552.119507,150.352127 552.838501,146.920334 
	C556.084412,131.426834 561.013000,116.475250 568.305725,102.347198 
	C569.892334,99.273392 570.882629,95.891716 572.454712,92.060928 
	C572.552307,90.655350 572.342712,89.840668 572.133179,89.025978 
	C570.286438,87.330414 568.439636,85.634857 566.213989,83.445984 
	C564.552795,83.089012 563.270569,83.225357 561.988281,83.361702 
	C561.434204,83.654587 560.880066,83.947464 559.568848,84.171501 
	C556.428467,85.016235 553.323547,85.281372 551.804626,86.971695 
	C548.072937,91.124565 544.660034,95.694847 541.856812,100.525452 
	C534.742554,112.785042 528.052917,125.290619 521.131958,137.663391 
	C520.416565,138.942230 519.507507,140.351013 518.310669,141.076950 
	C514.877991,143.158997 513.434692,146.237137 512.660339,150.009796 
	C511.219208,149.674759 510.127502,149.338791 509.035797,149.002823 
	C512.092651,134.920166 515.149475,120.837502 518.640381,106.311172 
	C519.002930,105.225700 518.931335,104.583885 518.859741,103.942070 
z"/>
<path fill="#04D50A" opacity="1.000000" stroke="none" 
	d="
M478.425568,89.818787 
	C475.638062,88.752823 473.187622,87.534943 470.248413,85.964905 
	C469.167694,85.930878 468.575714,86.249008 467.983734,86.567139 
	C465.061340,89.228050 462.138947,91.888962 458.598511,94.772232 
	C454.166168,98.265625 450.226013,101.403389 446.576538,104.848984 
	C443.541199,107.714661 440.847473,110.942131 437.847443,113.695435 
	C433.841187,110.730431 431.609406,107.613113 433.750854,102.615196 
	C434.089294,101.825317 432.532776,100.223518 431.852356,98.997116 
	C431.686127,96.358231 431.816284,93.659241 431.295685,91.092216 
	C429.969727,84.553635 423.652527,81.855713 417.324951,84.053978 
	C411.133667,86.204903 406.501892,89.924095 402.464722,95.240982 
	C402.025848,92.250099 400.287018,90.545586 397.908508,92.998932 
	C392.495697,98.582092 387.634308,104.699905 382.274414,110.800232 
	C381.667877,110.109177 380.931427,109.146446 381.074768,108.340149 
	C381.644867,105.133751 381.160278,102.473274 379.128479,99.706230 
	C378.396545,98.709412 379.315704,95.674507 380.438354,94.439743 
	C381.154633,93.651924 383.626251,94.498428 385.312653,94.543983 
	C387.179962,94.594429 389.517426,95.289734 390.830597,94.439056 
	C394.862885,91.826920 399.428650,89.699509 399.487854,83.325211 
	C399.505829,81.393013 403.609894,79.447227 405.914612,77.597672 
	C412.361206,72.424194 419.831238,69.049965 427.974854,70.234772 
	C435.240234,71.291794 442.989471,72.481491 448.044952,79.425629 
	C448.836212,80.512497 453.255981,80.636200 454.351166,79.547989 
	C460.920837,73.020088 468.685974,72.865150 476.572784,75.189552 
	C480.698364,76.405441 484.581421,79.086395 488.007568,81.816513 
	C490.453705,83.765694 489.125458,86.954453 485.955078,87.837067 
	C483.572449,88.500381 481.161133,89.060707 478.425568,89.818787 
z"/>
<path fill="#01D107" opacity="1.000000" stroke="none" 
	d="
M478.878448,94.673592 
	C478.818237,93.720802 478.758026,92.768005 478.714478,91.456879 
	C482.829498,90.432205 485.632538,91.598442 485.717560,96.814178 
	C482.965271,104.266769 480.483246,111.132919 477.693481,118.156708 
	C476.456360,119.816185 475.788025,121.606712 474.529602,122.744720 
	C473.051910,124.080986 471.061646,124.850403 469.293701,125.865669 
	C470.193359,122.790260 471.093018,119.714844 472.359436,116.138504 
	C472.899780,115.369125 472.962067,115.076942 472.913025,114.761032 
	C474.625275,108.759483 476.337524,102.757942 478.324860,96.200829 
	C478.692810,95.321373 478.785614,94.997482 478.878448,94.673592 
z"/>
<path fill="#0BD70D" opacity="1.000000" stroke="none" 
	d="
M485.976013,108.323868 
	C487.198822,107.010742 488.315399,105.897087 489.606750,105.049713 
	C493.240601,102.665222 496.946350,100.390320 501.025208,98.109848 
	C495.496155,105.989189 489.565643,113.830887 483.008820,121.796753 
	C481.587952,120.615067 480.793365,119.309204 480.146179,117.700882 
	C481.529449,115.267036 482.765350,113.135666 484.001221,111.004288 
	C484.650665,110.217827 485.300110,109.431374 485.976013,108.323868 
z"/>
<path fill="#01D406" opacity="1.000000" stroke="none" 
	d="
M392.673096,55.610645 
	C390.351532,56.014660 387.646027,57.104351 386.510834,56.207150 
	C384.879364,54.917782 388.121277,48.450760 390.609253,46.746780 
	C392.994995,48.865730 395.264984,50.881870 397.714722,53.057659 
	C396.082428,53.870010 394.536530,54.639359 392.673096,55.610645 
z"/>
<path fill="#08D20A" opacity="1.000000" stroke="none" 
	d="
M483.732910,110.777412 
	C482.765350,113.135666 481.529449,115.267036 479.813232,117.700058 
	C478.889038,118.000832 478.445129,117.999954 478.001221,117.999077 
	C480.483246,111.132919 482.965271,104.266769 485.723633,97.200363 
	C485.948486,98.780212 486.147583,100.612755 485.788513,102.328476 
	C485.206482,105.109467 484.258240,107.813820 483.732910,110.777412 
z"/>
<path fill="#F4FCF3" opacity="1.000000" stroke="none" 
	d="
M565.819336,236.510330 
	C565.401550,233.403870 565.058289,229.861679 565.036621,226.162567 
	C565.447815,226.763733 565.537476,227.521835 565.759949,228.642456 
	C565.893188,231.361526 565.893555,233.718063 565.819336,236.510330 
z"/>
<path fill="#03D40B" opacity="1.000000" stroke="none" 
	d="
M597.158447,197.794510 
	C597.955322,196.556183 598.796204,195.674118 600.324524,194.070999 
	C599.856201,199.796082 599.856201,199.796082 597.158447,197.794510 
z"/>
<path fill="#F4FCF3" opacity="1.000000" stroke="none" 
	d="
M565.762573,223.542740 
	C565.598816,222.728714 565.581909,221.548721 565.838745,220.205109 
	C566.044739,221.086578 565.977112,222.131683 565.762573,223.542740 
z"/>
<path fill="#F4FCF3" opacity="1.000000" stroke="none" 
	d="
M567.461670,215.425751 
	C567.269409,214.966705 567.336609,214.248657 567.663818,213.274628 
	C567.856262,213.734695 567.788757,214.450714 567.461670,215.425751 
z"/>
<path fill="#F4FCF3" opacity="1.000000" stroke="none" 
	d="
M575.201050,188.800842 
	C575.121765,188.470261 575.235596,187.947159 575.549438,187.240082 
	C575.631104,187.573517 575.512695,188.090927 575.201050,188.800842 
z"/>
<path fill="#28DA26" opacity="1.000000" stroke="none" 
	d="
M616.328613,104.885345 
	C616.274170,104.527679 616.460510,104.045891 616.878784,103.426407 
	C616.930237,103.779549 616.749817,104.270378 616.328613,104.885345 
z"/>
<path fill="#F4FCF3" opacity="1.000000" stroke="none" 
	d="
M566.292358,219.904572 
	C566.167786,219.552261 566.250305,219.004395 566.532837,218.258224 
	C566.655029,218.609619 566.577209,219.159317 566.292358,219.904572 
z"/>
<path fill="#28DA26" opacity="1.000000" stroke="none" 
	d="
M620.986938,93.838516 
	C620.830444,93.935997 620.727234,93.734993 620.667297,93.521835 
	C620.637878,93.417091 620.688782,93.289795 620.827332,93.046768 
	C620.986938,93.125565 621.022461,93.330299 620.986938,93.838516 
z"/>
<path fill="#F4FCF3" opacity="1.000000" stroke="none" 
	d="
M570.616089,202.564545 
	C570.411194,202.343521 570.465942,201.895966 570.780640,201.219803 
	C570.985657,201.440140 570.930664,201.889084 570.616089,202.564545 
z"/>
<path fill="#F4FCF3" opacity="1.000000" stroke="none" 
	d="
M571.367554,200.360458 
	C571.219116,200.182007 571.295532,199.814682 571.571777,199.245972 
	C571.711853,199.420273 571.652161,199.795929 571.367554,200.360458 
z"/>
<path fill="#02D208" opacity="1.000000" stroke="none" 
	d="
M449.000671,188.963623 
	C451.063354,188.570526 453.126038,188.177429 455.598877,188.218262 
	C456.241364,191.882416 458.564331,193.156570 460.674774,191.368774 
	C465.356842,187.402527 471.200073,184.371399 473.059021,177.665024 
	C473.644379,175.553207 475.334503,173.747620 477.290161,170.535110 
	C478.594849,174.129349 479.297699,176.065582 479.854309,178.337952 
	C479.805420,180.449051 479.902710,182.224014 480.000732,184.399261 
	C480.778900,189.347275 481.261749,194.126419 486.406738,196.108292 
	C487.617065,196.574509 489.127350,196.262085 490.499634,196.307861 
	C490.370239,195.090652 490.300354,193.863449 490.097748,192.658554 
	C489.779236,190.764236 489.371307,188.884964 489.361389,187.156540 
	C492.403778,187.765915 495.086029,188.218048 497.768280,188.670197 
	C501.419312,188.070633 505.070374,187.471069 509.504883,186.896881 
	C515.411316,186.467773 516.147705,185.634048 514.737366,181.885132 
	C521.513611,172.544159 528.289917,163.203186 535.615295,153.105270 
	C538.171021,181.755478 541.455750,185.699036 560.452026,183.217270 
	C560.029114,184.740692 559.666321,186.047440 558.878418,187.840530 
	C558.398682,188.653137 558.344238,188.979416 558.289734,189.305679 
	C558.289734,189.305679 558.153564,189.055328 557.823120,189.085785 
	C553.026367,188.235016 550.445679,191.002655 548.965149,194.391006 
	C547.274475,198.260406 546.716919,202.609573 545.218628,206.581116 
	C540.517273,219.042953 539.728027,231.843979 540.890259,244.984589 
	C541.267944,249.254852 542.301270,251.673904 547.264404,250.997009 
	C547.712158,250.978165 547.890869,250.964005 548.069641,250.949844 
	C548.069641,250.949844 547.994141,250.978699 548.058716,251.175873 
	C548.249512,251.674286 548.467102,251.877563 548.776184,251.982895 
	C551.313782,254.002899 553.851440,256.022888 556.800659,258.584778 
	C559.482727,258.880493 561.753113,258.634308 564.023560,258.388123 
	C565.334778,257.147583 566.645996,255.907028 568.125977,254.175369 
	C568.380005,253.370010 568.567993,253.139572 568.858765,252.992935 
	C572.380798,251.910141 575.232239,250.918457 576.747986,256.325378 
	C577.251099,258.120178 582.450073,258.860413 585.618408,259.543549 
	C587.387695,259.925018 589.395691,259.199188 591.296082,258.972351 
	C591.570801,259.556000 591.845459,260.139679 592.120178,260.723358 
	C589.803589,262.083496 587.591187,263.683685 585.144958,264.744995 
	C581.851746,266.173767 578.323303,267.051544 574.992798,268.404510 
	C565.347656,272.322662 555.245178,272.711823 544.998779,273.323090 
	C525.558960,274.482788 506.990845,267.244385 487.704163,268.079834 
	C475.748138,268.597687 463.839752,270.184906 451.884369,270.756989 
	C441.396820,271.258881 432.222717,267.340820 424.229523,260.633698 
	C423.748230,260.229919 423.168884,259.515686 423.205719,258.985504 
	C423.815338,250.201828 416.212799,248.069687 411.045197,244.106216 
	C406.596344,240.694016 401.808929,237.719376 397.121765,234.626160 
	C396.475342,234.199539 395.544159,234.204483 394.372375,234.004517 
	C393.551239,231.420929 393.107269,228.841614 392.651245,226.264435 
	C392.480377,225.298599 391.779205,223.874634 392.173706,223.446777 
	C395.793823,219.520294 395.803650,212.855042 401.913635,210.767761 
	C403.163086,210.340927 403.968292,208.735336 405.108398,207.838531 
	C406.856049,206.463791 408.578278,204.937271 410.561127,204.008621 
	C413.654480,202.559891 416.667847,201.836548 415.422516,196.953079 
	C414.900116,194.904465 417.053253,192.173553 418.305237,189.213165 
	C422.412842,183.780502 426.205200,178.887497 429.988647,174.416046 
	C429.977875,179.685974 429.804443,184.546158 430.136414,189.371582 
	C430.194336,190.213806 432.320221,191.423004 433.595123,191.572021 
	C436.779724,191.944275 440.028198,191.930527 443.243195,191.827225 
	C445.509491,191.754425 448.949249,193.630478 449.000671,188.963623 
z"/>
<path fill="#F4FCF3" opacity="1.000000" stroke="none" 
	d="
M568.765747,252.604324 
	C568.567993,253.139572 568.380005,253.370010 568.122192,253.833069 
	C567.647278,251.186707 567.344971,248.391510 567.076660,245.134064 
	C567.631348,247.186432 568.152039,249.701065 568.765747,252.604324 
z"/>
<path fill="#FBFBFC" opacity="1.000000" stroke="none" 
	d="
M832.226257,126.113312 
	C845.845337,117.522926 858.747620,123.760429 860.021301,139.456619 
	C860.348938,143.495102 859.775940,147.835709 858.578796,151.717453 
	C856.573792,158.218628 851.654602,161.770370 844.783813,162.161560 
	C837.860596,162.555725 831.921997,160.416718 827.900574,154.480820 
	C827.144958,153.365494 827.084167,151.651062 827.044495,150.203720 
	C826.934875,146.208282 827.264404,142.186768 826.940063,138.214798 
	C826.536560,133.273178 828.237549,129.447968 832.226257,126.113312 
z"/>
<path fill="#0CD70A" opacity="1.000000" stroke="none" 
	d="
M429.997559,173.994507 
	C426.205200,178.887497 422.412842,183.780502 418.310852,188.834900 
	C416.553162,188.762726 415.105103,188.529129 413.318909,188.143570 
	C417.314758,181.924088 421.735840,175.916534 425.963257,169.775620 
	C433.084381,159.431290 440.082581,149.002319 447.132446,138.608948 
	C447.788452,138.908966 448.444427,139.208984 449.100433,139.509018 
	C448.295380,146.108780 447.671814,152.737335 446.631165,159.299744 
	C445.704498,165.143372 444.119659,170.883835 443.228516,176.731262 
	C442.873322,179.061798 443.601013,181.557358 443.760864,184.662994 
	C438.607147,186.321747 435.405701,183.344376 436.116272,178.296600 
	C436.391449,176.341705 437.005249,174.377106 436.918793,172.441330 
	C436.766327,169.027924 434.993195,168.086823 431.707916,170.137115 
	C430.945740,171.187347 430.472260,172.094894 429.998352,173.250458 
	C429.997894,173.498474 429.997559,173.994507 429.997559,173.994507 
z"/>
<path fill="#11D70D" opacity="1.000000" stroke="none" 
	d="
M405.109833,121.210457 
	C408.335022,116.522751 411.724548,112.173622 415.114075,107.824493 
	C415.566132,107.998009 416.018158,108.171532 416.470215,108.345047 
	C416.328796,110.162460 416.421631,112.034821 416.010162,113.788879 
	C411.223846,134.192490 406.234833,154.549881 401.653320,174.998779 
	C400.950806,178.134476 402.034973,181.670456 401.916443,185.475342 
	C397.446228,185.450989 394.541321,182.068726 395.099152,177.891846 
	C395.898254,171.908173 397.021210,165.967758 398.005890,160.008865 
	C399.672821,153.913940 401.391479,147.832535 402.989075,141.719482 
	C404.106873,137.442261 405.330353,133.161972 405.976013,128.804443 
	C406.321625,126.471840 405.544617,123.972908 405.109833,121.210457 
z"/>
<path fill="#03D40B" opacity="1.000000" stroke="none" 
	d="
M389.000000,185.998779 
	C387.159576,185.016998 385.319153,184.035202 383.213715,182.912048 
	C381.940979,184.555908 380.692596,186.168320 379.444214,187.780731 
	C378.886108,187.813675 378.328003,187.846603 377.769928,187.879547 
	C376.859711,182.921982 375.252106,177.969116 375.218475,173.005600 
	C375.177887,167.004440 376.372742,160.978073 377.362885,155.017426 
	C377.445679,154.518845 381.106873,153.878159 381.297272,154.244171 
	C384.283112,159.983734 387.725647,157.795517 391.641357,155.478699 
	C390.999969,165.919678 389.999969,175.959229 389.000000,185.998779 
z"/>
<path fill="#04D50A" opacity="1.000000" stroke="none" 
	d="
M389.386902,185.999634 
	C389.999969,175.959229 390.999969,165.919678 392.000000,155.440369 
	C392.942810,151.417267 393.885590,147.833939 394.828400,144.250595 
	C395.564056,144.304657 396.299744,144.358719 397.035431,144.412796 
	C397.179260,149.460510 397.323090,154.508240 397.736389,159.782410 
	C397.021210,165.967758 395.898254,171.908173 395.099152,177.891846 
	C394.541321,182.068726 397.446228,185.450989 401.953369,185.891220 
	C402.928223,186.275635 403.489807,186.698212 403.929749,187.697174 
	C402.539185,188.849243 401.270203,189.424927 400.001221,190.000610 
	C396.592102,188.667236 393.182983,187.333847 389.386902,185.999634 
z"/>
<path fill="#03D40B" opacity="1.000000" stroke="none" 
	d="
M400.070465,190.364883 
	C401.270203,189.424927 402.539185,188.849243 403.981262,187.963852 
	C405.555603,188.011887 406.956848,188.369598 408.678650,188.806824 
	C407.328369,193.822983 406.034302,194.092148 400.070465,190.364883 
z"/>
<path fill="#04D50A" opacity="1.000000" stroke="none" 
	d="
M395.073029,118.110809 
	C395.690063,118.258255 396.285095,118.757622 396.975952,119.538109 
	C396.597504,120.037163 396.123260,120.255089 395.648987,120.473022 
	C395.449677,119.802925 395.250366,119.132828 395.073029,118.110809 
z"/>
<path fill="#F5F6F9" opacity="1.000000" stroke="none" 
	d="
M314.463135,124.091469 
	C318.347168,126.273804 320.582458,129.103180 320.890015,133.785767 
	C310.851654,133.785767 301.056671,133.785767 291.258453,133.780518 
	C291.403534,124.699341 304.181824,120.148682 314.463135,124.091469 
z"/>
<path fill="#F5F6F9" opacity="1.000000" stroke="none" 
	d="
M163.963776,160.155167 
	C159.634933,161.227249 155.656265,162.651199 151.616592,162.852798 
	C147.095200,163.078430 144.234283,160.251953 143.563293,155.653564 
	C142.918411,151.234192 145.310516,146.839859 149.704742,146.243896 
	C156.520020,145.319611 163.464310,145.346542 170.156738,144.980957 
	C172.546143,152.372925 169.360214,156.577637 163.963776,160.155167 
z"/>
<path fill="#22D920" opacity="1.000000" stroke="none" 
	d="
M642.109619,99.613571 
	C642.365967,111.812553 642.491638,124.376564 642.465393,137.368347 
	C642.201965,125.190277 642.090454,112.584435 642.109619,99.613571 
z"/>
<path fill="#22D920" opacity="1.000000" stroke="none" 
	d="
M641.910156,223.053207 
	C642.164734,223.480164 642.206848,224.006790 642.095154,224.759903 
	C641.860107,224.375214 641.778870,223.764053 641.910156,223.053207 
z"/>
<path fill="#03D307" opacity="1.000000" stroke="none" 
	d="
M480.000519,178.001831 
	C479.297699,176.065582 478.594849,174.129349 477.290161,170.535110 
	C475.334503,173.747620 473.644379,175.553207 473.059021,177.665024 
	C471.200073,184.371399 465.356842,187.402527 460.674774,191.368774 
	C458.564331,193.156570 456.241364,191.882416 456.002502,188.260468 
	C457.867065,186.077835 459.738159,184.286911 462.040771,182.120911 
	C462.632782,181.458511 462.793213,181.171188 462.953674,180.883865 
	C470.775177,170.034393 478.596680,159.184921 487.025146,148.308716 
	C489.369049,148.853409 491.105988,149.424835 492.842926,149.996277 
	C492.488495,155.421722 492.134064,160.847183 491.467255,166.977539 
	C491.149963,168.298935 491.145081,168.915451 491.140198,169.531967 
	C491.164398,170.471329 491.188568,171.410675 490.795868,172.972412 
	C490.307007,175.549316 490.235046,177.503860 490.163055,179.458405 
	C490.163055,179.458405 490.389435,179.546417 490.050171,179.912933 
	C489.474365,182.519424 489.237793,184.759369 489.001221,186.999313 
	C489.371307,188.884964 489.779236,190.764236 490.097748,192.658554 
	C490.300354,193.863449 490.370239,195.090652 490.499634,196.307861 
	C489.127350,196.262085 487.617065,196.574509 486.406738,196.108292 
	C481.261749,194.126419 480.778900,189.347275 480.320709,184.226898 
	C482.189148,181.570755 483.549988,179.508545 480.000519,178.001831 
M487.367676,158.637146 
	C487.851440,157.667862 488.335205,156.698593 488.818970,155.729309 
	C488.244812,155.581741 487.670654,155.434174 487.096497,155.286606 
	C486.967438,156.380463 486.838379,157.474304 487.367676,158.637146 
z"/>
<path fill="#0BD70D" opacity="1.000000" stroke="none" 
	d="
M513.009766,150.008896 
	C513.434692,146.237137 514.877991,143.158997 518.310669,141.076950 
	C519.507507,140.351013 520.416565,138.942230 521.131958,137.663391 
	C528.052917,125.290619 534.742554,112.785042 541.856812,100.525452 
	C544.660034,95.694847 548.072937,91.124565 551.804626,86.971695 
	C553.323547,85.281372 556.428467,85.016235 559.249573,84.165695 
	C552.844788,89.850525 550.331116,98.178658 546.179871,105.521568 
	C537.593445,120.709488 528.624512,135.681107 519.136108,150.892227 
	C516.642822,150.698120 514.826294,150.353500 513.009766,150.008896 
z"/>
<path fill="#0CD70B" opacity="1.000000" stroke="none" 
	d="
M546.995483,251.001694 
	C542.301270,251.673904 541.267944,249.254852 540.890259,244.984589 
	C539.728027,231.843979 540.517273,219.042953 545.218628,206.581116 
	C546.716919,202.609573 547.274475,198.260406 548.965149,194.391006 
	C550.445679,191.002655 553.026367,188.235016 557.912598,189.196716 
	C553.612976,201.962112 547.871033,214.338867 546.526733,228.760147 
	C546.413696,230.296677 546.412903,231.147964 546.412109,231.999268 
	C546.365723,236.501877 546.319275,241.004486 546.223022,246.242493 
	C546.388123,247.312164 546.602905,247.646423 546.817749,247.980682 
	C546.988159,248.264755 547.158630,248.548843 547.210083,249.498489 
	C547.059204,250.443268 547.027344,250.722473 546.995483,251.001694 
z"/>
<path fill="#0BD40C" opacity="1.000000" stroke="none" 
	d="
M431.663544,99.341194 
	C432.532776,100.223518 434.089294,101.825317 433.750854,102.615196 
	C431.609406,107.613113 433.841187,110.730431 437.840271,114.086899 
	C437.756134,117.905319 437.524200,121.018349 437.292267,124.131393 
	C434.081268,128.171509 430.870239,132.211639 427.659241,136.251770 
	C427.091705,136.069382 426.524170,135.887009 425.956635,135.704620 
	C425.615448,123.439926 430.177887,111.755974 431.663544,99.341194 
z"/>
<path fill="#04D50A" opacity="1.000000" stroke="none" 
	d="
M429.988647,174.416046 
	C429.997559,173.994507 429.997894,173.498474 430.343018,173.196106 
	C431.124298,171.927307 431.560455,170.960861 431.996613,169.994415 
	C434.993195,168.086823 436.766327,169.027924 436.918793,172.441330 
	C437.005249,174.377106 436.391449,176.341705 436.116272,178.296600 
	C435.405701,183.344376 438.607147,186.321747 443.908630,185.033142 
	C445.594330,185.986801 447.057434,187.255524 448.760590,188.743927 
	C448.949249,193.630478 445.509491,191.754425 443.243195,191.827225 
	C440.028198,191.930527 436.779724,191.944275 433.595123,191.572021 
	C432.320221,191.423004 430.194336,190.213806 430.136414,189.371582 
	C429.804443,184.546158 429.977875,179.685974 429.988647,174.416046 
z"/>
<path fill="#10D50A" opacity="1.000000" stroke="none" 
	d="
M477.693481,118.156708 
	C478.445129,117.999954 478.889038,118.000832 479.665863,118.002525 
	C480.793365,119.309204 481.587952,120.615067 482.724243,121.971924 
	C478.230957,128.850830 473.425812,135.700409 468.518707,142.476120 
	C467.974152,143.228012 466.848206,143.558868 465.991913,144.084991 
	C465.614349,143.097672 464.737549,141.990204 464.941467,141.142822 
	C466.129089,136.208008 467.570404,131.334244 469.109833,126.152756 
	C471.061646,124.850403 473.051910,124.080986 474.529602,122.744720 
	C475.788025,121.606712 476.456360,119.816185 477.693481,118.156708 
z"/>
<path fill="#0DD80F" opacity="1.000000" stroke="none" 
	d="
M437.577057,123.967224 
	C437.524200,121.018349 437.756134,117.905319 437.995239,114.400818 
	C440.847473,110.942131 443.541199,107.714661 446.576538,104.848984 
	C450.226013,101.403389 454.166168,98.265625 458.325989,94.987091 
	C451.734924,104.587410 444.798401,114.195236 437.577057,123.967224 
z"/>
<path fill="#1FD916" opacity="1.000000" stroke="none" 
	d="
M512.660339,150.009796 
	C514.826294,150.353500 516.642822,150.698120 518.861511,151.076080 
	C516.107727,155.677917 512.951782,160.246414 508.981812,165.993286 
	C506.350861,159.491943 508.449615,154.569427 508.840698,149.352539 
	C510.127502,149.338791 511.219208,149.674759 512.660339,150.009796 
z"/>
<path fill="#0DD309" opacity="1.000000" stroke="none" 
	d="
M493.003784,149.612808 
	C491.105988,149.424835 489.369049,148.853409 487.315369,148.141998 
	C489.023254,144.807831 491.047882,141.613647 493.072510,138.419464 
	C493.407532,138.438995 493.742584,138.458511 494.077606,138.478027 
	C493.773315,142.061798 493.468994,145.645569 493.003784,149.612808 
z"/>
<path fill="#0AD50C" opacity="1.000000" stroke="none" 
	d="
M489.361389,187.156540 
	C489.237793,184.759369 489.474365,182.519424 490.053345,180.034348 
	C492.719177,182.555222 495.042572,185.321213 497.567108,188.378693 
	C495.086029,188.218048 492.403778,187.765915 489.361389,187.156540 
z"/>
<path fill="#0AD50C" opacity="1.000000" stroke="none" 
	d="
M514.443237,182.019470 
	C516.147705,185.634048 515.411316,186.467773 509.859009,186.874512 
	C511.002777,185.269104 512.575928,183.711441 514.443237,182.019470 
z"/>
<path fill="#28DA26" opacity="1.000000" stroke="none" 
	d="
M609.347290,88.637634 
	C611.147034,86.109238 613.687195,85.102089 616.955505,87.279327 
	C614.623901,87.945259 612.186157,88.275505 609.347290,88.637634 
z"/>
<path fill="#11D617" opacity="1.000000" stroke="none" 
	d="
M563.585144,258.330475 
	C561.753113,258.634308 559.482727,258.880493 557.093140,258.793457 
	C559.031616,258.397766 561.089172,258.335297 563.585144,258.330475 
z"/>
<path fill="#0BD70D" opacity="1.000000" stroke="none" 
	d="
M562.382080,83.460419 
	C563.270569,83.225357 564.552795,83.089012 565.922607,83.243927 
	C564.932129,83.543167 563.854004,83.551155 562.382080,83.460419 
z"/>
<path fill="#F4FCF3" opacity="1.000000" stroke="none" 
	d="
M546.713989,231.918411 
	C546.412903,231.147964 546.413696,230.296677 546.603882,229.182556 
	C546.867432,229.892334 546.941589,230.864944 546.713989,231.918411 
z"/>
<path fill="#0AD50C" opacity="1.000000" stroke="none" 
	d="
M490.546814,179.246704 
	C490.235046,177.503860 490.307007,175.549316 490.664795,173.305481 
	C490.943909,175.022461 490.937256,177.028732 490.546814,179.246704 
z"/>
<path fill="#0BD70D" opacity="1.000000" stroke="none" 
	d="
M518.694397,104.164383 
	C518.931335,104.583885 519.002930,105.225700 518.819214,105.938339 
	C518.552246,105.468346 518.540649,104.927521 518.694397,104.164383 
z"/>
<path fill="#0DD80F" opacity="1.000000" stroke="none" 
	d="
M468.255341,86.637161 
	C468.575714,86.249008 469.167694,85.930878 469.894897,85.844055 
	C469.529053,86.285973 469.027985,86.496574 468.255341,86.637161 
z"/>
<path fill="#0BD70D" opacity="1.000000" stroke="none" 
	d="
M572.103699,89.388435 
	C572.342712,89.840668 572.552307,90.655350 572.583069,91.683853 
	C572.294250,91.182076 572.184265,90.466476 572.103699,89.388435 
z"/>
<path fill="#0DD309" opacity="1.000000" stroke="none" 
	d="
M491.330200,169.271515 
	C491.145081,168.915451 491.149963,168.298935 491.308899,167.417450 
	C491.482025,167.772018 491.501160,168.391541 491.330200,169.271515 
z"/>
<path fill="#10D50A" opacity="1.000000" stroke="none" 
	d="
M472.712891,114.895805 
	C472.962067,115.076942 472.899780,115.369125 472.561279,115.794960 
	C472.262909,115.623360 472.301666,115.316109 472.712891,114.895805 
z"/>
<path fill="#10D50A" opacity="1.000000" stroke="none" 
	d="
M478.616211,94.793602 
	C478.785614,94.997482 478.692810,95.321373 478.406158,95.814880 
	C478.259552,95.627533 478.306793,95.270569 478.616211,94.793602 
z"/>
<path fill="#0CD70B" opacity="1.000000" stroke="none" 
	d="
M558.510010,189.163269 
	C558.344238,188.979416 558.398682,188.653137 558.656982,188.170868 
	C558.817322,188.350189 558.773865,188.685516 558.510010,189.163269 
z"/>
<path fill="#28DA26" opacity="1.000000" stroke="none" 
	d="
M603.289001,95.024948 
	C603.001770,94.777054 603.102600,94.473114 603.583496,94.106987 
	C603.707947,94.299698 603.612427,94.607735 603.289001,95.024948 
z"/>
<path fill="#0AD50C" opacity="1.000000" stroke="none" 
	d="
M462.677063,180.942078 
	C462.793213,181.171188 462.632782,181.458511 462.254883,181.872070 
	C462.158447,181.665619 462.279449,181.332947 462.677063,180.942078 
z"/>
<path fill="#11D617" opacity="1.000000" stroke="none" 
	d="
M548.768494,251.744385 
	C548.467102,251.877563 548.249512,251.674286 548.086914,251.146820 
	C548.394775,250.985168 548.631531,251.180267 548.768494,251.744385 
z"/>
<path fill="#11D617" opacity="1.000000" stroke="none" 
	d="
M547.264404,250.997009 
	C547.027344,250.722473 547.059204,250.443268 547.175537,249.749374 
	C547.516968,249.660294 547.773987,249.985886 548.050354,250.630661 
	C547.890869,250.964005 547.712158,250.978165 547.264404,250.997009 
z"/>
<path fill="#11D617" opacity="1.000000" stroke="none" 
	d="
M546.847412,247.670166 
	C546.602905,247.646423 546.388123,247.312164 546.183838,246.668976 
	C546.421936,246.693237 546.649536,247.026443 546.847412,247.670166 
z"/>
<path fill="#0AD50C" opacity="1.000000" stroke="none" 
	d="
M479.854309,178.337952 
	C483.549988,179.508545 482.189148,181.570755 480.320007,183.826630 
	C479.902710,182.224014 479.805420,180.449051 479.854309,178.337952 
z"/>
<path fill="#02D208" opacity="1.000000" stroke="none" 
	d="
M431.707916,170.137115 
	C431.560455,170.960861 431.124298,171.927307 430.343475,172.948090 
	C430.472260,172.094894 430.945740,171.187347 431.707916,170.137115 
z"/>
<path fill="#0DD309" opacity="1.000000" stroke="none" 
	d="
M487.038513,158.602646 
	C486.838379,157.474304 486.967438,156.380463 487.096497,155.286606 
	C487.670654,155.434174 488.244812,155.581741 488.818970,155.729309 
	C488.335205,156.698593 487.851440,157.667862 487.038513,158.602646 
z"/>
</svg>