<svg version="1.1" id="Layer_1" xmlns="http://www.w3.org/2000/svg" xmlns:xlink="http://www.w3.org/1999/xlink" x="0px" y="0px"
	 width="100%" viewBox="0 0 407 169" enable-background="new 0 0 407 169" xml:space="preserve">
<path fill="#FEFFFF" opacity="1.000000" stroke="none" 
	d="
M256.000000,170.000000 
	C170.666687,170.000000 85.833374,170.000000 1.000046,170.000000 
	C1.000030,113.666702 1.000030,57.333401 1.000015,1.000076 
	C136.666611,1.000051 272.333221,1.000051 407.999878,1.000025 
	C407.999908,57.333252 407.999908,113.666504 407.999939,169.999878 
	C357.500000,170.000000 307.000000,170.000000 256.000000,170.000000 
M190.083878,30.024967 
	C187.402557,30.072945 184.721237,30.120922 181.288239,30.073088 
	C177.794159,31.689919 174.300064,33.306747 170.149506,35.066315 
	C163.484055,39.839691 160.020569,46.415321 159.966202,54.522083 
	C159.831100,74.664101 159.856842,94.807976 159.950531,114.950485 
	C160.019226,129.720108 170.251480,140.527878 185.074722,140.781235 
	C205.045609,141.122589 225.032150,141.133163 245.001999,140.756424 
	C259.846252,140.476410 270.003662,129.556152 270.014496,114.848412 
	C270.029236,94.871475 270.258423,74.889160 269.822784,54.921658 
	C269.723846,50.386883 268.118835,45.387310 265.742371,41.496258 
	C259.442169,31.180891 249.201096,29.156401 237.055389,30.019474 
	C226.710526,30.062677 216.365677,30.105879 205.096375,29.997511 
	C200.387451,30.050413 195.678543,30.103315 190.083878,30.024967 
M23.140564,73.622932 
	C21.722603,72.629173 20.304644,71.635414 18.273426,70.211861 
	C18.273426,80.735825 18.273426,89.821869 18.273426,98.807106 
	C20.468384,98.807106 22.376226,98.807106 24.673565,98.807106 
	C24.673565,94.024910 24.664200,89.560158 24.675991,85.095467 
	C24.690008,79.788200 26.832184,76.580956 30.532408,77.123589 
	C35.185177,77.805916 34.990974,81.703941 34.991024,85.242142 
	C34.991089,89.832901 34.991035,94.423653 34.991035,98.932816 
	C37.640610,98.932816 39.590012,98.932816 42.008987,98.932816 
	C42.008987,93.961472 42.000366,89.177933 42.011436,84.394447 
	C42.022282,79.709488 44.374020,76.643822 47.994759,77.121475 
	C52.312653,77.691101 52.072533,81.194458 52.062920,84.405762 
	C52.048618,89.184036 52.059212,93.962379 52.059212,98.829567 
	C54.628246,98.829567 56.676540,98.829567 59.005928,98.829567 
	C59.005928,92.400772 59.281528,86.256432 58.936966,80.147057 
	C58.494766,72.306549 52.095165,68.897804 45.291355,72.584702 
	C43.704399,73.444656 42.183353,74.426239 40.661263,75.334381 
	C36.106247,70.369171 33.344513,69.858772 27.492622,72.712189 
	C26.310478,73.288612 25.035686,73.675018 23.140564,73.622932 
M345.042572,97.241623 
	C351.575287,100.474350 357.619537,99.576775 361.113708,94.855026 
	C365.206177,89.324791 364.979675,79.896286 360.636292,74.981232 
	C356.262878,70.032181 351.021912,69.704277 344.225800,73.649406 
	C341.834625,72.572685 339.723999,71.622276 337.379150,70.566414 
	C337.379150,84.662308 337.379150,97.680534 337.379150,110.510757 
	C339.712982,110.510757 341.635193,110.510757 344.185059,110.510757 
	C344.185059,105.924309 344.185059,101.644745 345.042572,97.241623 
M116.326981,70.996178 
	C113.445801,70.634483 111.466827,71.505455 109.841118,74.229652 
	C107.817406,77.620789 105.076447,80.583893 101.773911,84.860001 
	C101.773911,75.916534 101.773911,68.507042 101.773911,61.242939 
	C99.332458,61.242939 97.277504,61.242939 95.273941,61.242939 
	C95.273941,73.988396 95.273941,86.382408 95.273941,98.751358 
	C97.614113,98.751358 99.671234,98.751358 102.170837,98.751358 
	C102.170837,94.423271 102.170837,90.387939 102.170837,85.375420 
	C105.193451,88.918266 107.979988,91.389809 109.756737,94.448021 
	C112.621071,99.378220 116.640198,99.650833 121.903160,98.695122 
	C117.721519,93.914230 113.836914,89.472946 109.806068,84.864456 
	C113.274353,80.341003 116.635132,75.957771 120.439232,70.996346 
	C118.736511,70.996346 117.936829,70.996346 116.326981,70.996178 
M131.413467,91.048523 
	C130.864502,89.881821 130.315536,88.715118 129.431076,86.835403 
	C136.533676,86.835403 142.626801,86.835403 148.665192,86.835403 
	C149.473679,77.793633 145.817734,72.409012 137.713013,71.234612 
	C131.766983,70.373016 124.879395,73.614098 123.011078,80.885674 
	C121.331741,87.421745 123.484413,93.572449 128.566544,97.005356 
	C133.581360,100.392799 142.652557,99.854424 148.048126,95.748421 
	C147.527161,94.169868 146.989059,92.539391 146.447693,90.899017 
	C141.481262,92.848549 136.849396,94.617851 131.413467,91.048523 
M70.214508,98.921074 
	C76.136971,100.005554 81.930946,95.973000 88.130638,99.555122 
	C88.130638,92.514702 88.180618,86.548149 88.113800,80.582901 
	C88.065918,76.308159 85.901405,73.437515 81.898506,71.987740 
	C76.314346,69.965240 71.105080,71.033798 65.962502,73.594002 
	C66.490181,75.586250 66.906807,77.159195 67.323021,78.730591 
	C77.948242,75.886742 80.599945,76.411270 81.898438,81.993294 
	C79.351097,81.993294 76.910881,81.986511 74.470718,81.994781 
	C70.173569,82.009354 66.443001,83.249649 65.030685,87.719185 
	C63.553120,92.395218 65.063057,96.173889 70.214508,98.921074 
M287.138458,98.961594 
	C296.393372,99.214523 296.393372,99.214523 295.659119,92.315208 
	C289.158905,93.659203 288.018982,92.754936 288.004608,86.229263 
	C287.998108,83.280128 288.003479,80.330956 288.003479,77.247368 
	C290.910126,77.067093 293.320770,76.917572 295.659637,76.772507 
	C295.659637,74.680618 295.659637,72.951881 295.659637,70.771362 
	C292.932922,70.771362 290.526672,70.771362 288.189087,70.771362 
	C288.007477,68.248634 287.859161,66.188377 287.710815,64.128113 
	C287.289734,63.923122 286.868622,63.718128 286.447540,63.513134 
	C283.021912,67.608986 279.596283,71.704834 275.578094,76.509178 
	C278.308167,77.004753 279.525940,77.225807 281.003662,77.494049 
	C281.003662,81.838242 281.045868,85.980965 280.991699,90.122421 
	C280.938843,94.161987 282.440765,97.186081 287.138458,98.961594 
M318.733643,74.136818 
	C319.879425,69.715149 316.471008,70.598991 314.709290,71.294662 
	C312.065643,72.338593 309.793213,74.322556 307.316071,75.937325 
	C306.259735,73.195091 305.923248,69.432526 301.246826,71.487297 
	C301.246826,80.584572 301.246826,89.660568 301.246826,98.858902 
	C303.547089,98.858902 305.599854,98.858902 308.007263,98.858902 
	C308.007263,94.967392 307.954315,91.337669 308.018921,87.710052 
	C308.133209,81.293358 309.782410,79.431602 315.944733,77.774864 
	C316.923920,77.511612 317.529297,75.858109 318.733643,74.136818 
M327.276184,70.981430 
	C325.857697,71.074059 324.439240,71.166679 323.171753,71.249451 
	C323.171753,80.786057 323.171753,89.866669 323.171753,98.853676 
	C325.427551,98.853676 327.349121,98.853676 329.657715,98.853676 
	C329.657715,89.930496 329.685028,81.304893 329.594757,72.680511 
	C329.588898,72.119514 328.679718,71.567963 327.276184,70.981430 
M328.388977,65.948158 
	C328.483948,64.224854 329.044159,62.314274 328.460449,60.864166 
	C328.202576,60.223400 325.366943,59.989197 324.190094,60.566456 
	C323.376312,60.965614 322.695831,63.772820 323.191742,64.269218 
	C324.284424,65.362961 326.159180,65.675385 328.388977,65.948158 
z"/>
<path fill="#2FD222" opacity="1.000000" stroke="none" 
	d="
M237.982422,30.158222 
	C249.201096,29.156401 259.442169,31.180891 265.742371,41.496258 
	C268.118835,45.387310 269.723846,50.386883 269.822784,54.921658 
	C270.258423,74.889160 270.029236,94.871475 270.014496,114.848412 
	C270.003662,129.556152 259.846252,140.476410 245.001999,140.756424 
	C225.032150,141.133163 205.045609,141.122589 185.074722,140.781235 
	C170.251480,140.527878 160.019226,129.720108 159.950531,114.950485 
	C159.856842,94.807976 159.831100,74.664101 159.966202,54.522083 
	C160.020569,46.415321 163.484055,39.839691 170.893295,35.017365 
	C179.772308,34.965408 187.936218,35.362095 196.029953,34.781116 
	C199.756271,34.513638 203.345139,32.331573 207.465088,31.012735 
	C213.517670,31.047073 219.104843,31.221191 224.684265,31.082779 
	C229.121902,30.972694 233.550064,30.480677 237.982422,30.158222 
M172.154877,70.738205 
	C172.257980,72.510994 171.655838,75.158737 172.584518,75.907295 
	C176.939972,79.418007 176.564301,72.104324 180.097397,72.187195 
	C179.542908,74.702934 179.077026,76.945969 178.551788,79.175011 
	C177.038910,85.595360 175.308960,91.974602 174.119553,98.453568 
	C173.845184,99.948051 175.390121,101.776527 176.097855,103.451302 
	C177.551712,102.716805 179.262802,102.252220 180.391510,101.176537 
	C181.678299,99.950218 182.424667,98.164848 183.443268,96.647537 
	C186.267349,92.440750 189.110825,88.246986 191.946640,84.048080 
	C192.387802,88.736198 191.428192,92.883469 191.175156,97.073410 
	C191.054138,99.077393 192.272766,101.162285 192.884628,103.210541 
	C194.847336,102.142036 197.358826,101.523239 198.671143,99.921768 
	C202.819870,94.859032 206.519821,89.428551 210.877243,83.479698 
	C210.518005,88.704872 209.889938,92.994949 210.068878,97.251099 
	C210.160416,99.428131 211.697083,101.544411 212.580597,103.688148 
	C214.818893,102.595802 217.532898,101.976166 219.191147,100.307419 
	C222.152237,97.327560 224.476181,93.714539 227.439270,89.884430 
	C228.201340,100.341614 228.511139,100.736565 236.879959,102.662346 
	C235.414734,107.025101 233.514191,111.299080 232.618332,115.774170 
	C231.852921,119.597763 231.614822,123.784088 232.407043,127.543701 
	C232.754501,129.192612 236.244598,130.179321 238.307709,131.466721 
	C238.883698,129.689316 239.791992,127.944527 239.970245,126.128105 
	C240.415756,121.588150 239.944214,116.890961 240.883728,112.478989 
	C244.066071,97.534813 252.106537,84.635323 258.991058,71.264023 
	C259.673187,69.939194 260.576477,68.662315 260.920105,67.251839 
	C261.156769,66.280556 260.935394,64.511063 260.327728,64.178596 
	C259.371704,63.655548 257.602570,63.575401 256.748871,64.152580 
	C255.458694,65.024834 254.485077,66.523956 253.681564,67.930687 
	C249.660278,74.970802 245.949844,82.200661 241.639526,89.055336 
	C240.496094,90.873749 237.615967,91.600113 235.533249,92.827888 
	C235.190353,90.528069 234.059738,87.998108 234.651855,85.971458 
	C236.448334,79.822548 239.053909,73.914177 241.016403,67.806740 
	C241.518677,66.243652 240.808701,64.291039 240.655670,62.517387 
	C238.819427,63.105808 236.247375,63.137653 235.296021,64.395409 
	C233.136658,67.250198 231.914886,70.791695 230.060013,73.903854 
	C225.978760,80.751419 221.741455,87.505989 217.567856,94.298508 
	C217.082214,94.066360 216.596573,93.834206 216.110947,93.602058 
	C216.255417,92.197868 216.292145,90.772530 216.563019,89.393158 
	C217.740860,83.395363 219.104355,77.430725 220.118240,71.406548 
	C220.346222,70.052002 219.811646,67.599022 218.971161,67.254532 
	C217.595337,66.690613 215.546600,67.118172 214.038361,67.745064 
	C212.944046,68.199913 212.190094,69.598717 211.412613,70.669708 
	C207.463867,76.109131 203.556931,81.578911 199.635361,87.038063 
	C200.039978,81.841385 201.876724,77.216721 202.812332,72.416428 
	C203.364532,69.583183 207.291336,65.928162 202.976562,63.662365 
	C198.605255,61.366871 197.168167,66.294632 195.168839,68.722610 
	C191.442368,73.248055 188.170883,78.148155 184.710037,82.892326 
	C184.310593,82.719002 183.911148,82.545670 183.511703,82.372345 
	C184.338242,77.719795 185.426086,73.091606 185.862991,68.402748 
	C186.038315,66.521149 185.299667,63.412735 184.050949,62.822731 
	C182.408585,62.046738 179.383301,62.552132 177.803635,63.688961 
	C175.635086,65.249573 174.264404,67.918861 172.154877,70.738205 
z"/>
<path fill="#2D487D" opacity="1.000000" stroke="none" 
	d="
M23.472086,73.885979 
	C25.035686,73.675018 26.310478,73.288612 27.492622,72.712189 
	C33.344513,69.858772 36.106247,70.369171 40.661263,75.334381 
	C42.183353,74.426239 43.704399,73.444656 45.291355,72.584702 
	C52.095165,68.897804 58.494766,72.306549 58.936966,80.147057 
	C59.281528,86.256432 59.005928,92.400772 59.005928,98.829567 
	C56.676540,98.829567 54.628246,98.829567 52.059212,98.829567 
	C52.059212,93.962379 52.048618,89.184036 52.062920,84.405762 
	C52.072533,81.194458 52.312653,77.691101 47.994759,77.121475 
	C44.374020,76.643822 42.022282,79.709488 42.011436,84.394447 
	C42.000366,89.177933 42.008987,93.961472 42.008987,98.932816 
	C39.590012,98.932816 37.640610,98.932816 34.991035,98.932816 
	C34.991035,94.423653 34.991089,89.832901 34.991024,85.242142 
	C34.990974,81.703941 35.185177,77.805916 30.532408,77.123589 
	C26.832184,76.580956 24.690008,79.788200 24.675991,85.095467 
	C24.664200,89.560158 24.673565,94.024910 24.673565,98.807106 
	C22.376226,98.807106 20.468384,98.807106 18.273426,98.807106 
	C18.273426,89.821869 18.273426,80.735825 18.273426,70.211861 
	C20.304644,71.635414 21.722603,72.629173 23.472086,73.885979 
z"/>
<path fill="#2D477C" opacity="1.000000" stroke="none" 
	d="
M344.613831,97.303398 
	C344.185059,101.644745 344.185059,105.924309 344.185059,110.510757 
	C341.635193,110.510757 339.712982,110.510757 337.379150,110.510757 
	C337.379150,97.680534 337.379150,84.662308 337.379150,70.566414 
	C339.723999,71.622276 341.834625,72.572685 344.225800,73.649406 
	C351.021912,69.704277 356.262878,70.032181 360.636292,74.981232 
	C364.979675,79.896286 365.206177,89.324791 361.113708,94.855026 
	C357.619537,99.576775 351.575287,100.474350 344.613831,97.303398 
M354.916626,91.502350 
	C355.599884,88.874855 356.979187,86.204590 356.820923,83.628807 
	C356.495758,78.337517 351.222168,75.673080 346.844269,78.111809 
	C344.231049,79.567505 342.262939,87.067612 344.264404,90.168365 
	C346.722107,93.975922 350.502045,93.750687 354.916626,91.502350 
z"/>
<path fill="#2B467B" opacity="1.000000" stroke="none" 
	d="
M116.732056,70.996262 
	C117.936829,70.996346 118.736511,70.996346 120.439232,70.996346 
	C116.635132,75.957771 113.274353,80.341003 109.806068,84.864456 
	C113.836914,89.472946 117.721519,93.914230 121.903160,98.695122 
	C116.640198,99.650833 112.621071,99.378220 109.756737,94.448021 
	C107.979988,91.389809 105.193451,88.918266 102.170837,85.375420 
	C102.170837,90.387939 102.170837,94.423271 102.170837,98.751358 
	C99.671234,98.751358 97.614113,98.751358 95.273941,98.751358 
	C95.273941,86.382408 95.273941,73.988396 95.273941,61.242939 
	C97.277504,61.242939 99.332458,61.242939 101.773911,61.242939 
	C101.773911,68.507042 101.773911,75.916534 101.773911,84.860001 
	C105.076447,80.583893 107.817406,77.620789 109.841118,74.229652 
	C111.466827,71.505455 113.445801,70.634483 116.732056,70.996262 
z"/>
<path fill="#2D477C" opacity="1.000000" stroke="none" 
	d="
M131.713562,91.342697 
	C136.849396,94.617851 141.481262,92.848549 146.447693,90.899017 
	C146.989059,92.539391 147.527161,94.169868 148.048126,95.748421 
	C142.652557,99.854424 133.581360,100.392799 128.566544,97.005356 
	C123.484413,93.572449 121.331741,87.421745 123.011078,80.885674 
	C124.879395,73.614098 131.766983,70.373016 137.713013,71.234612 
	C145.817734,72.409012 149.473679,77.793633 148.665192,86.835403 
	C142.626801,86.835403 136.533676,86.835403 129.431076,86.835403 
	C130.315536,88.715118 130.864502,89.881821 131.713562,91.342697 
M130.887009,79.616562 
	C131.204407,80.410210 131.484879,81.873062 131.844986,81.892929 
	C135.087067,82.071815 138.343124,81.997490 141.761826,81.997490 
	C139.332367,76.720627 137.404144,76.232048 130.887009,79.616562 
z"/>
<path fill="#2C477C" opacity="1.000000" stroke="none" 
	d="
M69.827316,98.781296 
	C65.063057,96.173889 63.553120,92.395218 65.030685,87.719185 
	C66.443001,83.249649 70.173569,82.009354 74.470718,81.994781 
	C76.910881,81.986511 79.351097,81.993294 81.898438,81.993294 
	C80.599945,76.411270 77.948242,75.886742 67.323021,78.730591 
	C66.906807,77.159195 66.490181,75.586250 65.962502,73.594002 
	C71.105080,71.033798 76.314346,69.965240 81.898506,71.987740 
	C85.901405,73.437515 88.065918,76.308159 88.113800,80.582901 
	C88.180618,86.548149 88.130638,92.514702 88.130638,99.555122 
	C81.930946,95.973000 76.136971,100.005554 69.827316,98.781296 
M79.509239,92.017830 
	C80.500908,90.428055 81.492584,88.838280 83.139725,86.197723 
	C79.254623,86.369247 76.788284,85.966896 74.765228,86.733841 
	C73.226250,87.317276 72.250465,89.386307 71.024109,90.794373 
	C72.709610,91.612000 74.338066,92.612404 76.106499,93.164284 
	C76.900620,93.412102 77.974686,92.762886 79.509239,92.017830 
z"/>
<path fill="#2B497B" opacity="1.000000" stroke="none" 
	d="
M286.726959,98.871674 
	C282.440765,97.186081 280.938843,94.161987 280.991699,90.122421 
	C281.045868,85.980965 281.003662,81.838242 281.003662,77.494049 
	C279.525940,77.225807 278.308167,77.004753 275.578094,76.509178 
	C279.596283,71.704834 283.021912,67.608986 286.447540,63.513134 
	C286.868622,63.718128 287.289734,63.923122 287.710815,64.128113 
	C287.859161,66.188377 288.007477,68.248634 288.189087,70.771362 
	C290.526672,70.771362 292.932922,70.771362 295.659637,70.771362 
	C295.659637,72.951881 295.659637,74.680618 295.659637,76.772507 
	C293.320770,76.917572 290.910126,77.067093 288.003479,77.247368 
	C288.003479,80.330956 287.998108,83.280128 288.004608,86.229263 
	C288.018982,92.754936 289.158905,93.659203 295.659119,92.315208 
	C296.393372,99.214523 296.393372,99.214523 286.726959,98.871674 
z"/>
<path fill="#2C477C" opacity="1.000000" stroke="none" 
	d="
M318.520569,74.492088 
	C317.529297,75.858109 316.923920,77.511612 315.944733,77.774864 
	C309.782410,79.431602 308.133209,81.293358 308.018921,87.710052 
	C307.954315,91.337669 308.007263,94.967392 308.007263,98.858902 
	C305.599854,98.858902 303.547089,98.858902 301.246826,98.858902 
	C301.246826,89.660568 301.246826,80.584572 301.246826,71.487297 
	C305.923248,69.432526 306.259735,73.195091 307.316071,75.937325 
	C309.793213,74.322556 312.065643,72.338593 314.709290,71.294662 
	C316.471008,70.598991 319.879425,69.715149 318.520569,74.492088 
z"/>
<path fill="#364F82" opacity="1.000000" stroke="none" 
	d="
M327.733459,70.996719 
	C328.679718,71.567963 329.588898,72.119514 329.594757,72.680511 
	C329.685028,81.304893 329.657715,89.930496 329.657715,98.853676 
	C327.349121,98.853676 325.427551,98.853676 323.171753,98.853676 
	C323.171753,89.866669 323.171753,80.786057 323.171753,71.249451 
	C324.439240,71.166679 325.857697,71.074059 327.733459,70.996719 
z"/>
<path fill="#31CE2D" opacity="1.000000" stroke="none" 
	d="
M206.996338,31.017651 
	C203.345139,32.331573 199.756271,34.513638 196.029953,34.781116 
	C187.936218,35.362095 179.772308,34.965408 171.221527,34.945992 
	C174.300064,33.306747 177.794159,31.689919 181.957504,30.373482 
	C185.407715,30.501324 188.188675,30.328770 190.969620,30.156216 
	C195.678543,30.103315 200.387451,30.050413 205.670807,30.268475 
	C206.447800,30.773897 206.698166,30.933302 206.996338,31.017651 
z"/>
<path fill="#304A7E" opacity="1.000000" stroke="none" 
	d="
M328.051880,66.127411 
	C326.159180,65.675385 324.284424,65.362961 323.191742,64.269218 
	C322.695831,63.772820 323.376312,60.965614 324.190094,60.566456 
	C325.366943,59.989197 328.202576,60.223400 328.460449,60.864166 
	C329.044159,62.314274 328.483948,64.224854 328.051880,66.127411 
z"/>
<path fill="#2AC020" opacity="1.000000" stroke="none" 
	d="
M207.465088,31.012733 
	C206.698166,30.933302 206.447800,30.773897 206.133026,30.344259 
	C216.365677,30.105879 226.710526,30.062677 237.518906,30.088848 
	C233.550064,30.480677 229.121902,30.972694 224.684265,31.082779 
	C219.104843,31.221191 213.517670,31.047073 207.465088,31.012733 
z"/>
<path fill="#2AC020" opacity="1.000000" stroke="none" 
	d="
M190.526749,30.090591 
	C188.188675,30.328770 185.407715,30.501324 182.333344,30.421389 
	C184.721237,30.120922 187.402557,30.072945 190.526749,30.090591 
z"/>
<path fill="#F7FDF6" opacity="1.000000" stroke="none" 
	d="
M172.353363,70.425644 
	C174.264404,67.918861 175.635086,65.249573 177.803635,63.688961 
	C179.383301,62.552132 182.408585,62.046738 184.050949,62.822731 
	C185.299667,63.412735 186.038315,66.521149 185.862991,68.402748 
	C185.426086,73.091606 184.338242,77.719795 183.511703,82.372345 
	C183.911148,82.545670 184.310593,82.719002 184.710037,82.892326 
	C188.170883,78.148155 191.442368,73.248055 195.168839,68.722610 
	C197.168167,66.294632 198.605255,61.366871 202.976562,63.662365 
	C207.291336,65.928162 203.364532,69.583183 202.812332,72.416428 
	C201.876724,77.216721 200.039978,81.841385 199.635361,87.038063 
	C203.556931,81.578911 207.463867,76.109131 211.412613,70.669708 
	C212.190094,69.598717 212.944046,68.199913 214.038361,67.745064 
	C215.546600,67.118172 217.595337,66.690613 218.971161,67.254532 
	C219.811646,67.599022 220.346222,70.052002 220.118240,71.406548 
	C219.104355,77.430725 217.740860,83.395363 216.563019,89.393158 
	C216.292145,90.772530 216.255417,92.197868 216.110947,93.602058 
	C216.596573,93.834206 217.082214,94.066360 217.567856,94.298508 
	C221.741455,87.505989 225.978760,80.751419 230.060013,73.903854 
	C231.914886,70.791695 233.136658,67.250198 235.296021,64.395409 
	C236.247375,63.137653 238.819427,63.105808 240.655670,62.517387 
	C240.808701,64.291039 241.518677,66.243652 241.016403,67.806740 
	C239.053909,73.914177 236.448334,79.822548 234.651855,85.971458 
	C234.059738,87.998108 235.190353,90.528069 235.533234,92.827896 
	C237.615967,91.600113 240.496094,90.873749 241.639526,89.055336 
	C245.949844,82.200661 249.660278,74.970802 253.681564,67.930687 
	C254.485077,66.523956 255.458694,65.024834 256.748871,64.152580 
	C257.602570,63.575401 259.371704,63.655548 260.327728,64.178596 
	C260.935394,64.511063 261.156769,66.280556 260.920105,67.251839 
	C260.576477,68.662315 259.673187,69.939194 258.991058,71.264023 
	C252.106537,84.635323 244.066071,97.534813 240.883728,112.478989 
	C239.944214,116.890961 240.415756,121.588150 239.970245,126.128105 
	C239.791992,127.944527 238.883698,129.689316 238.307709,131.466721 
	C236.244598,130.179321 232.754501,129.192612 232.407043,127.543701 
	C231.614822,123.784088 231.852921,119.597763 232.618332,115.774170 
	C233.514191,111.299080 235.414734,107.025101 236.879959,102.662346 
	C228.511139,100.736565 228.201340,100.341614 227.439270,89.884430 
	C224.476181,93.714539 222.152237,97.327560 219.191147,100.307419 
	C217.532898,101.976166 214.818893,102.595802 212.580597,103.688148 
	C211.697083,101.544411 210.160416,99.428131 210.068878,97.251099 
	C209.889938,92.994949 210.518005,88.704872 210.877243,83.479698 
	C206.519821,89.428551 202.819870,94.859032 198.671143,99.921768 
	C197.358826,101.523239 194.847336,102.142036 192.884644,103.210541 
	C192.272766,101.162285 191.054138,99.077393 191.175156,97.073410 
	C191.428192,92.883469 192.387802,88.736198 191.946640,84.048080 
	C189.110825,88.246986 186.267349,92.440750 183.443268,96.647537 
	C182.424667,98.164848 181.678299,99.950218 180.391510,101.176537 
	C179.262802,102.252220 177.551712,102.716805 176.097855,103.451302 
	C175.390121,101.776527 173.845184,99.948051 174.119553,98.453568 
	C175.308960,91.974602 177.038910,85.595360 178.551788,79.175011 
	C179.077026,76.945969 179.542908,74.702934 180.097397,72.187195 
	C176.564301,72.104324 176.939972,79.418007 172.584518,75.907295 
	C171.655838,75.158737 172.257980,72.510994 172.353363,70.425644 
z"/>
<path fill="#FCFCFD" opacity="1.000000" stroke="none" 
	d="
M354.600830,91.758392 
	C350.502045,93.750687 346.722107,93.975922 344.264404,90.168365 
	C342.262939,87.067612 344.231049,79.567505 346.844269,78.111809 
	C351.222168,75.673080 356.495758,78.337517 356.820923,83.628807 
	C356.979187,86.204590 355.599884,88.874855 354.600830,91.758392 
z"/>
<path fill="#F8F9FB" opacity="1.000000" stroke="none" 
	d="
M131.154633,79.323242 
	C137.404144,76.232048 139.332367,76.720627 141.761826,81.997490 
	C138.343124,81.997490 135.087067,82.071815 131.844986,81.892929 
	C131.484879,81.873062 131.204407,80.410210 131.154633,79.323242 
z"/>
<path fill="#F3F4F8" opacity="1.000000" stroke="none" 
	d="
M79.215485,92.269272 
	C77.974686,92.762886 76.900620,93.412102 76.106499,93.164284 
	C74.338066,92.612404 72.709610,91.612000 71.024109,90.794373 
	C72.250465,89.386307 73.226250,87.317276 74.765228,86.733841 
	C76.788284,85.966896 79.254623,86.369247 83.139725,86.197723 
	C81.492584,88.838280 80.500908,90.428055 79.215485,92.269272 
z"/>
</svg>